<?xml version="1.0" encoding="UTF-8"?>
<svg version="1.1" xmlns="http://www.w3.org/2000/svg" width="500" height="500">
<path d="M0 0 C1.1439281 -0.00260775 2.2878562 -0.00521549 3.46644878 -0.00790226 C4.73908486 -0.00567154 6.01172094 -0.00344082 7.32292175 -0.0011425 C8.67600706 -0.00229337 10.02909206 -0.00388066 11.3821764 -0.00586975 C15.11771105 -0.01006776 18.85322035 -0.00797027 22.58875513 -0.00488353 C26.61060927 -0.00263155 30.63245888 -0.00610802 34.65431213 -0.00886345 C42.53997844 -0.01332232 50.42563526 -0.01234416 58.31130195 -0.00945081 C64.71716372 -0.00719723 71.12302283 -0.00688405 77.52888489 -0.00797462 C78.43877916 -0.00812786 79.34867344 -0.00828109 80.28614026 -0.00843897 C82.134269 -0.00875868 83.98239774 -0.00908289 85.83052647 -0.00941156 C103.18183829 -0.01226669 120.53314484 -0.0089788 137.8844558 -0.00361119 C152.78964696 0.00085688 167.69483034 0.00008095 182.60002136 -0.00452995 C199.88702237 -0.00987513 217.17401875 -0.011992 234.46102047 -0.00891769 C236.30255063 -0.00859912 238.1440808 -0.00828475 239.98561096 -0.00797462 C240.89180343 -0.00782035 241.7979959 -0.00766607 242.73164874 -0.00750712 C249.1337071 -0.0066418 255.53576253 -0.00810518 261.93782043 -0.01045418 C269.73420112 -0.01325175 277.53057174 -0.01251484 285.32695127 -0.00717343 C289.30876168 -0.00453583 293.29055526 -0.00353234 297.27236557 -0.00682259 C300.91155486 -0.00978435 304.55071159 -0.00819477 308.18989789 -0.00284503 C310.14261431 -0.00118414 312.09533295 -0.00447948 314.04804707 -0.00790226 C315.76393921 -0.00399064 315.76393921 -0.00399064 317.51449585 0 C318.5099602 0.00016235 319.50542456 0.0003247 320.5310545 0.00049198 C322.75724792 0.12584114 322.75724792 0.12584114 323.75724792 1.12584114 C323.86985455 4.04142052 323.91668656 6.93388877 323.92219543 9.85043526 C323.92783898 10.77684494 323.93348252 11.70325462 323.93929708 12.65773731 C323.95711005 15.78699246 323.96774463 18.91623188 323.97843933 22.04551888 C323.9896473 24.27884822 324.00127919 26.51217548 324.01330566 28.74550056 C324.04472287 34.83007715 324.06979687 40.91466499 324.09350252 46.99927592 C324.11902766 53.35251812 324.1493806 59.70573755 324.17897034 66.05896187 C324.23099622 77.41601285 324.27797752 88.77307753 324.32300882 100.13015766 C324.36401192 110.43514026 324.41027157 120.74008835 324.46037292 131.04503059 C324.51849067 142.99928944 324.57322706 154.95355626 324.6229738 166.90785366 C324.64933206 173.24040512 324.67707587 179.57294252 324.70834732 185.9054718 C324.73752867 191.85856631 324.76181232 197.81166073 324.78224754 203.76479149 C324.79058023 205.95542505 324.80064831 208.14605277 324.81253624 210.33666992 C324.82842698 213.31587229 324.83816584 216.29503119 324.8462677 219.27426338 C324.85545021 220.58936957 324.85545021 220.58936957 324.86481822 221.93104357 C324.87139746 227.89754207 324.87139746 227.89754207 323.75724792 230.12584114 C321.70353699 230.99547005 321.70353699 230.99547005 319.02287292 231.85240364 C318.05607605 232.16177864 317.08927917 232.47115364 316.09318542 232.78990364 C315.07482605 233.10701302 314.05646667 233.42412239 313.00724792 233.75084114 C312.0043573 234.07568489 311.00146667 234.40052864 309.96818542 234.73521614 C305.22754664 236.23159815 301.81257164 237.12584114 296.75724792 237.12584114 C296.42724792 166.83584114 296.09724792 96.54584114 295.75724792 24.12584114 C204.01724792 24.12584114 112.27724792 24.12584114 17.75724792 24.12584114 C17.42724792 53.49584114 17.09724792 82.86584114 16.75724792 113.12584114 C25.56412292 110.65084114 34.37099792 108.17584114 43.44474792 105.62584114 C75.15023823 96.71878958 75.15023823 96.71878958 90.31974792 92.56334114 C97.43933609 90.61173393 104.54653332 88.62842015 111.62980652 86.54844856 C113.5705071 85.98067841 115.51352851 85.42077448 117.45890808 84.86924934 C122.51700584 83.42557521 127.50885784 81.8841905 132.47343445 80.14258003 C150.2523444 73.94913606 163.07201331 71.69344951 181.20988464 79.0877552 C184.5542691 80.45063834 187.94128119 81.53047303 191.38224792 82.62584114 C192.52693542 83.02029427 193.67162292 83.41474739 194.85099792 83.82115364 C199.82070751 85.51201555 204.85526615 86.99109027 209.88224792 88.50084114 C217.50973868 90.79560545 225.08694934 93.19882655 232.63224792 95.75084114 C238.66424198 97.78951158 244.69904461 99.74590655 250.81974792 101.50084114 C258.15503191 103.60927911 265.43692861 105.8805624 272.707901 108.20012093 C274.60494401 108.80464037 276.50347482 109.40448451 278.40202332 110.00425911 C279.56854431 110.37824837 280.73506531 110.75223763 281.93693542 111.13755989 C282.98607117 111.47231331 284.03520691 111.80706673 285.11613464 112.15196419 C287.75724792 113.12584114 287.75724792 113.12584114 290.75724792 115.12584114 C291.14759541 117.26887608 291.14759541 117.26887608 291.16943359 119.97775459 C291.18486206 121.00269524 291.20029053 122.02763588 291.21618652 123.08363533 C291.21789352 124.21252174 291.21960052 125.34140816 291.22135925 126.50450325 C291.23476349 127.68991203 291.24816772 128.87532082 291.26197815 130.09665108 C291.29551258 133.35286925 291.31562633 136.60883097 291.32922196 139.86518359 C291.3460233 143.26982068 291.37810214 146.67431726 291.40805054 150.07885933 C291.45596892 155.79785324 291.49195114 161.51682795 291.52067566 167.23594856 C291.55402042 173.85032916 291.60504471 180.46438988 291.66583234 187.07857126 C291.72394912 193.43662014 291.77059284 199.79470112 291.81163597 206.15288162 C291.82925455 208.86058877 291.8507144 211.56822549 291.8752079 214.27587891 C291.90682103 218.05653613 291.92532383 221.83702905 291.94010925 225.6177845 C291.95193741 226.74464668 291.96376556 227.87150887 291.97595215 229.03251839 C291.97728149 230.06027885 291.97861084 231.08803932 291.97998047 232.14694405 C291.98530194 233.04125098 291.99062342 233.93555792 291.99610615 234.85696507 C291.75724792 237.12584114 291.75724792 237.12584114 289.75724792 240.12584114 C287.19471741 241.13630867 287.19471741 241.13630867 283.90910339 242.03941536 C282.6795694 242.38342384 281.4500354 242.72743233 280.1832428 243.08186531 C278.83034738 243.44823553 277.47741046 243.81445253 276.12443542 244.18052864 C274.73043379 244.5667664 273.3367306 244.95408274 271.9433136 245.34242439 C268.25972146 246.36627541 264.57264818 247.37696328 260.88456726 248.38450813 C255.03175076 249.98609453 249.18482856 251.60911519 243.33705521 253.22899437 C241.31777402 253.78665569 239.29730451 254.33979531 237.27650452 254.8919239 C230.43481696 256.76870582 223.62881859 258.73628996 216.85148621 260.83336067 C216.1565399 261.04673513 215.46159359 261.2601096 214.7455883 261.47994995 C211.48912201 262.32081392 211.48912201 262.32081392 208.75724792 264.12584114 C208.6485663 265.96042289 208.61036376 267.79920164 208.59902954 269.6369648 C208.58434631 271.43124161 208.58434631 271.43124161 208.56936646 273.26176643 C208.56346151 274.59935148 208.55765112 275.93693695 208.55192566 277.27452278 C208.54235239 278.67367025 208.53234265 280.0728148 208.52192688 281.47195625 C208.49481192 285.28167423 208.47383818 289.09140468 208.45392489 292.9011662 C208.43210584 296.87837913 208.40469726 300.85555334 208.37786865 304.83273506 C208.3278864 312.36919845 208.28296817 319.90568326 208.23984629 327.44218868 C208.19052109 336.02006693 208.13558552 344.59790633 208.0801667 353.17574704 C207.96626176 370.82574236 207.85944135 388.47577432 207.75724792 406.12584114 C205.83965622 406.92749829 203.92179265 407.72850515 202.0038147 408.52923775 C200.93583365 408.97536824 199.86785261 409.42149874 198.76750851 409.88114834 C195.33717674 411.29953361 191.89113648 412.64175812 188.41740417 413.95005989 C187.80255661 414.1823983 187.18770905 414.41473671 186.55422974 414.65411568 C184.64345245 415.37577552 182.73166197 416.09469914 180.81974792 416.81334114 C178.88305759 417.54325929 176.94659025 418.27376408 175.01028442 419.00470161 C173.27276868 419.6603036 171.53467985 420.31438617 169.79655457 420.96837044 C166.82193988 422.04078427 166.82193988 422.04078427 164.35661316 423.33995247 C158.03081416 425.25248623 151.50258898 422.58585526 145.53849792 420.41490364 C144.74809616 420.13519218 143.9576944 419.85548073 143.14334106 419.56729317 C141.420657 418.95702519 139.69921615 418.34323887 137.97889709 417.72633553 C133.20423888 416.01500097 128.41977043 414.33147007 123.63615417 412.64537239 C122.09992149 412.10293137 122.09992149 412.10293137 120.53265381 411.54953194 C107.79311996 407.06242419 94.99183351 402.75784853 82.19474792 398.43834114 C64.86862086 392.58527594 47.56782093 386.6755863 30.34880066 380.51378059 C29.11718201 380.07380745 27.88556335 379.6338343 26.61662292 379.18052864 C25.56958191 378.80396126 24.52254089 378.42739388 23.44377136 378.03941536 C20.56546634 377.01930428 20.56546634 377.01930428 16.75724792 376.12584114 C16.75724792 393.61584114 16.75724792 411.10584114 16.75724792 429.12584114 C25.42047302 429.11013069 25.42047302 429.11013069 34.25871277 429.09410286 C53.29364988 429.06103409 72.32858809 429.03879824 91.36354637 429.0222168 C102.90983415 429.01189203 114.45609476 428.99780885 126.00236511 428.97496223 C136.06283575 428.95506502 146.12328673 428.94213344 156.1837765 428.93766415 C161.5136646 428.93505054 166.84349643 428.92888264 172.17336655 428.91438103 C177.18505104 428.900855 182.19665584 428.89660836 187.20835686 428.89962578 C189.05228673 428.89907337 190.89621914 428.8950664 192.74013329 428.88743019 C195.2487351 428.87754673 197.75703206 428.87984789 200.26564026 428.88533211 C201.0029857 428.87950642 201.74033114 428.87368074 202.50002038 428.86767852 C207.5290055 428.89759872 207.5290055 428.89759872 209.75724792 431.12584114 C209.89250183 433.92320442 209.89250183 433.92320442 209.73381042 437.44615364 C209.68224792 438.70298958 209.63068542 439.95982552 209.57756042 441.25474739 C209.51267867 442.58678949 209.44757158 443.91882064 209.38224792 445.25084114 C209.32400969 446.59064408 209.26670637 447.93048801 209.21037292 449.27037239 C209.06854518 452.55604846 208.9170988 455.8410005 208.75724792 459.12584114 C180.87238554 459.14916656 152.98752462 459.16681855 125.10265446 459.17765331 C112.15621681 459.18281703 99.20978521 459.18986117 86.26335144 459.20128059 C74.9836972 459.21122512 63.70404733 459.21769401 52.42438883 459.21992964 C46.44788886 459.22123714 40.47140143 459.22432547 34.49490547 459.2315712 C28.87668712 459.23832777 23.25848654 459.24045885 17.64026451 459.23894882 C15.57177255 459.23922531 13.50328003 459.24123258 11.43479156 459.24504662 C8.6237621 459.2499782 5.81280087 459.24884142 3.00177002 459.24609566 C2.17201993 459.2490085 1.34226983 459.25192134 0.4873758 459.25492245 C-5.12863086 459.23996235 -5.12863086 459.23996235 -6.24275208 458.12584114 C-6.36796178 455.32675408 -6.4288393 452.55113785 -6.44807434 449.750597 C-6.45797394 448.87262962 -6.46787354 447.99466225 -6.47807312 447.0900898 C-6.50978635 444.17364939 -6.53448418 441.25719267 -6.55915833 438.34068489 C-6.57971938 436.32428744 -6.60071562 434.30789437 -6.62213135 432.29150581 C-6.67743967 426.97323848 -6.72681017 421.65493169 -6.77497864 416.33659554 C-6.82512987 410.91409463 -6.88084915 405.49165132 -6.93611145 400.06920052 C-7.0438001 389.42146321 -7.14522113 378.77367599 -7.24275208 368.12584114 C-8.83522067 367.48105293 -10.42847178 366.83819714 -12.02204895 366.19615364 C-12.90920593 365.8379554 -13.79636292 365.47975716 -14.71040344 365.11070442 C-18.65821389 363.57534965 -22.70734691 362.42472098 -26.77400208 361.25084114 C-29.74585314 359.8965799 -30.06936417 359.09347066 -31.24275208 356.12584114 C-31.43147054 353.11067352 -31.50809405 350.18922474 -31.48999023 347.17456245 C-31.49240465 346.25995686 -31.49481907 345.34535126 -31.49730664 344.40303034 C-31.50295243 341.33147651 -31.49427377 338.26012984 -31.485672 335.18858528 C-31.48674467 332.9892388 -31.48868313 330.7898926 -31.49142456 328.59054756 C-31.49627871 322.61127273 -31.48860981 316.63207235 -31.47847152 310.65280652 C-31.46969881 304.40109734 -31.47144832 298.14939055 -31.47183228 291.89767647 C-31.47089518 281.39697841 -31.46225955 270.89630452 -31.44856262 260.39561653 C-31.43447857 249.59255131 -31.42739171 238.78951137 -31.42805481 227.98643684 C-31.42809477 227.32122774 -31.42813472 226.65601864 -31.42817589 225.97065169 C-31.42821624 225.30659158 -31.4282566 224.64253148 -31.42829818 223.95834833 C-31.42895329 212.28330889 -31.42380377 200.60827918 -31.41550636 188.9332428 C-31.41197307 183.96086674 -31.41014304 178.98849434 -31.40961266 174.0161171 C-31.40860884 168.16144272 -31.40250894 162.30679496 -31.39244652 156.45212936 C-31.38952315 154.30146383 -31.38829582 152.15079523 -31.38887405 150.00012779 C-31.38936409 147.0680913 -31.38371536 144.13612955 -31.37646484 141.20410347 C-31.37801345 140.34982374 -31.37956205 139.49554401 -31.38115758 138.61537701 C-31.36493289 134.65150094 -31.22712626 130.9953363 -30.24275208 127.12584114 C-29.25275208 126.79970833 -28.26275208 126.47357552 -27.24275208 126.13755989 C-25.90939139 125.69623628 -24.57605961 125.25482532 -23.24275208 124.81334114 C-22.59435364 124.6000013 -21.9459552 124.38666145 -21.27790833 124.16685677 C-20.62693176 123.9509388 -19.9759552 123.73502083 -19.30525208 123.51255989 C-18.71872864 123.31879768 -18.1322052 123.12503548 -17.52790833 122.92540169 C-15.37291094 122.17138284 -13.23694349 121.37923541 -11.09992981 120.57586861 C-10.37804977 120.30464589 -9.65616974 120.03342318 -8.91241455 119.75398159 C-8.36142593 119.54669524 -7.81043732 119.33940889 -7.24275208 119.12584114 C-7.23852014 118.51862252 -7.2342882 117.9114039 -7.22992802 117.28578472 C-7.12675697 102.53107385 -7.01813981 87.77641009 -6.90341282 73.02178478 C-6.84806462 65.88664663 -6.79458006 58.75150347 -6.74543762 51.61631966 C-6.69805158 44.73690574 -6.6455319 37.85754658 -6.58981133 30.97819519 C-6.56935248 28.34703983 -6.5506454 25.71587028 -6.53367805 23.08469009 C-6.50971192 19.41354017 -6.47964706 15.74248902 -6.44807434 12.07139778 C-6.44231888 10.97160591 -6.43656342 9.87181404 -6.43063354 8.73869514 C-6.41595032 7.24732788 -6.41595032 7.24732788 -6.40097046 5.72583199 C-6.39451791 4.8565812 -6.38806536 3.98733042 -6.38141727 3.0917387 C-6.09744058 -0.93428286 -3.43774655 0.00056067 0 0 Z " fill="#126EFE" transform="translate(66.24275207519531,13.87415885925293)"/>
<path d="M0 0 C1.1439281 -0.00260775 2.2878562 -0.00521549 3.46644878 -0.00790226 C4.73908486 -0.00567154 6.01172094 -0.00344082 7.32292175 -0.0011425 C8.67600706 -0.00229337 10.02909206 -0.00388066 11.3821764 -0.00586975 C15.11771105 -0.01006776 18.85322035 -0.00797027 22.58875513 -0.00488353 C26.61060927 -0.00263155 30.63245888 -0.00610802 34.65431213 -0.00886345 C42.53997844 -0.01332232 50.42563526 -0.01234416 58.31130195 -0.00945081 C64.71716372 -0.00719723 71.12302283 -0.00688405 77.52888489 -0.00797462 C78.43877916 -0.00812786 79.34867344 -0.00828109 80.28614026 -0.00843897 C82.134269 -0.00875868 83.98239774 -0.00908289 85.83052647 -0.00941156 C103.18183829 -0.01226669 120.53314484 -0.0089788 137.8844558 -0.00361119 C152.78964696 0.00085688 167.69483034 0.00008095 182.60002136 -0.00452995 C199.88702237 -0.00987513 217.17401875 -0.011992 234.46102047 -0.00891769 C236.30255063 -0.00859912 238.1440808 -0.00828475 239.98561096 -0.00797462 C240.89180343 -0.00782035 241.7979959 -0.00766607 242.73164874 -0.00750712 C249.1337071 -0.0066418 255.53576253 -0.00810518 261.93782043 -0.01045418 C269.73420112 -0.01325175 277.53057174 -0.01251484 285.32695127 -0.00717343 C289.30876168 -0.00453583 293.29055526 -0.00353234 297.27236557 -0.00682259 C300.91155486 -0.00978435 304.55071159 -0.00819477 308.18989789 -0.00284503 C310.14261431 -0.00118414 312.09533295 -0.00447948 314.04804707 -0.00790226 C315.76393921 -0.00399064 315.76393921 -0.00399064 317.51449585 0 C318.5099602 0.00016235 319.50542456 0.0003247 320.5310545 0.00049198 C322.75724792 0.12584114 322.75724792 0.12584114 323.75724792 1.12584114 C323.86985455 4.04142052 323.91668656 6.93388877 323.92219543 9.85043526 C323.92783898 10.77684494 323.93348252 11.70325462 323.93929708 12.65773731 C323.95711005 15.78699246 323.96774463 18.91623188 323.97843933 22.04551888 C323.9896473 24.27884822 324.00127919 26.51217548 324.01330566 28.74550056 C324.04472287 34.83007715 324.06979687 40.91466499 324.09350252 46.99927592 C324.11902766 53.35251812 324.1493806 59.70573755 324.17897034 66.05896187 C324.23099622 77.41601285 324.27797752 88.77307753 324.32300882 100.13015766 C324.36401192 110.43514026 324.41027157 120.74008835 324.46037292 131.04503059 C324.51849067 142.99928944 324.57322706 154.95355626 324.6229738 166.90785366 C324.64933206 173.24040512 324.67707587 179.57294252 324.70834732 185.9054718 C324.73752867 191.85856631 324.76181232 197.81166073 324.78224754 203.76479149 C324.79058023 205.95542505 324.80064831 208.14605277 324.81253624 210.33666992 C324.82842698 213.31587229 324.83816584 216.29503119 324.8462677 219.27426338 C324.85545021 220.58936957 324.85545021 220.58936957 324.86481822 221.93104357 C324.87139746 227.89754207 324.87139746 227.89754207 323.75724792 230.12584114 C321.70353699 230.99547005 321.70353699 230.99547005 319.02287292 231.85240364 C318.05607605 232.16177864 317.08927917 232.47115364 316.09318542 232.78990364 C315.07482605 233.10701302 314.05646667 233.42412239 313.00724792 233.75084114 C312.0043573 234.07568489 311.00146667 234.40052864 309.96818542 234.73521614 C305.22754664 236.23159815 301.81257164 237.12584114 296.75724792 237.12584114 C296.42724792 166.83584114 296.09724792 96.54584114 295.75724792 24.12584114 C204.01724792 24.12584114 112.27724792 24.12584114 17.75724792 24.12584114 C17.42724792 53.82584114 17.09724792 83.52584114 16.75724792 114.12584114 C5.56805874 117.85557087 5.56805874 117.85557087 2.50724792 118.81334114 C1.71834167 119.06470833 0.92943542 119.31607552 0.11662292 119.57505989 C-2.41348143 120.16569683 -4.65367492 120.16372614 -7.24275208 120.12584114 C-7.13564649 104.62739203 -7.02290943 89.12899152 -6.90341282 73.63063335 C-6.84806444 66.4349609 -6.79457985 59.23928349 -6.74543762 52.04356575 C-6.7026155 45.77396311 -6.65634258 39.50439722 -6.60587353 33.2348513 C-6.57925661 29.91320657 -6.55491779 26.59157013 -6.53367805 23.26988602 C-6.50971217 19.56760351 -6.47964728 15.86541897 -6.44807434 12.16319466 C-6.44231888 11.05405205 -6.43656342 9.94490944 -6.43063354 8.80215645 C-6.42084473 7.79949745 -6.41105591 6.79683846 -6.40097046 5.76379585 C-6.39451791 4.88717072 -6.38806536 4.0105456 -6.38141727 3.10735607 C-6.09867206 -0.93305103 -3.45507288 0.00056349 0 0 Z " fill="#FBA41C" transform="translate(66.24275207519531,13.87415885925293)"/>
<path d="M0 0 C3.73736591 0.28748969 5.06324471 1.33794683 8.25 3.25 C11.12386113 4.09113009 14.00809476 4.81441547 16.921875 5.50390625 C17.69015625 5.75011719 18.4584375 5.99632812 19.25 6.25 C20.52286338 8.79572677 20.33245778 10.4947573 20.27172852 13.34228516 C20.24158409 14.93370834 20.24158409 14.93370834 20.21083069 16.55728149 C20.17027809 18.28076309 20.17027809 18.28076309 20.12890625 20.0390625 C20.10529526 21.21262299 20.08168427 22.38618347 20.05735779 23.5953064 C19.98059053 27.35532336 19.89662229 31.11514109 19.8125 34.875 C19.75929241 37.41926098 19.70655193 39.96353178 19.65429688 42.5078125 C19.52495773 48.75533245 19.38970111 55.00270363 19.25 61.25 C20.23251928 61.24815641 21.21503857 61.24631283 22.22733116 61.24441338 C46.10364455 61.20006884 69.97995262 61.16717446 93.85629845 61.14637566 C105.40258622 61.13605089 116.94884684 61.12196771 128.49511719 61.09912109 C138.55558783 61.07922388 148.61603881 61.0662923 158.67652857 61.06182301 C164.00641667 61.05920939 169.33624851 61.0530415 174.66611862 61.03853989 C179.67780312 61.02501386 184.68940792 61.02076722 189.70110893 61.02378464 C191.54503881 61.02323223 193.38897122 61.01922526 195.23288536 61.01158905 C197.74148717 61.00170558 200.24978414 61.00400675 202.75839233 61.00949097 C203.8644105 61.00075244 203.8644105 61.00075244 204.99277246 60.99183738 C210.02175758 61.02175758 210.02175758 61.02175758 212.25 63.25 C212.38525391 66.04736328 212.38525391 66.04736328 212.2265625 69.5703125 C212.175 70.82714844 212.1234375 72.08398438 212.0703125 73.37890625 C212.00543074 74.71094835 211.94032366 76.0429795 211.875 77.375 C211.81676177 78.71480294 211.75945844 80.05464687 211.703125 81.39453125 C211.56129726 84.68020732 211.40985087 87.96515936 211.25 91.25 C183.36513762 91.27332542 155.48027669 91.29097741 127.59540653 91.30181217 C114.64896888 91.30697589 101.70253728 91.31402003 88.75610352 91.32543945 C77.47644927 91.33538398 66.19679941 91.34185287 54.9171409 91.34408849 C48.94064094 91.345396 42.96415351 91.34848433 36.98765755 91.35573006 C31.3694392 91.36248663 25.75123861 91.36461771 20.13301659 91.36310768 C18.06452462 91.36338417 15.9960321 91.36539144 13.92754364 91.36920547 C11.11651418 91.37413705 8.30555294 91.37300028 5.49452209 91.37025452 C4.24989695 91.37462378 4.24989695 91.37462378 2.98012787 91.37908131 C-2.63587879 91.36412121 -2.63587879 91.36412121 -3.75 90.25 C-3.85050214 87.48598592 -3.88616075 84.74692774 -3.87939453 81.98242188 C-3.88114685 81.11581436 -3.88289917 80.24920685 -3.88470459 79.3563385 C-3.88912425 76.47712227 -3.88618472 73.59796691 -3.8828125 70.71875 C-3.88348551 68.72717273 -3.8844555 66.73559554 -3.88571167 64.74401855 C-3.8871888 60.56420105 -3.88503361 56.38440487 -3.88037109 52.20458984 C-3.8746738 46.83397474 -3.87795273 41.4634096 -3.88394356 36.09279633 C-3.88754877 31.9785728 -3.88641077 27.86436121 -3.88381577 23.75013733 C-3.88314639 21.76929214 -3.8839753 19.78844588 -3.88629532 17.80760193 C-3.88882119 15.04423124 -3.88498218 12.28094266 -3.87939453 9.51757812 C-3.88141876 8.69052872 -3.88344299 7.86347931 -3.88552856 7.0113678 C-3.86044646 0.35094968 -3.86044646 0.35094968 0 0 Z " fill="#F9A41D" transform="translate(63.75,381.75)"/>
<path d="M0 0 C1.10250464 0.0023229 1.10250464 0.0023229 2.22728211 0.00469273 C3.00260035 0.00242718 3.77791859 0.00016162 4.57673132 -0.00217259 C7.19468385 -0.0085416 9.81258499 -0.00768138 12.43054444 -0.00685817 C14.29934497 -0.00984785 16.16814488 -0.01324993 18.03694397 -0.01703578 C23.12776907 -0.02589931 28.21857738 -0.02821488 33.30940944 -0.02885157 C37.55172824 -0.02979867 41.79404309 -0.03347466 46.03636038 -0.03702366 C56.04080396 -0.04517712 66.04523854 -0.04760708 76.04968506 -0.04689723 C86.38739749 -0.04629616 96.72505779 -0.05685184 107.06275702 -0.0726409 C115.92303484 -0.08569377 124.78329557 -0.09108208 133.64358294 -0.09044182 C138.94215086 -0.09018618 144.24067249 -0.09307392 149.53923088 -0.10361987 C154.52056814 -0.11326309 159.50181447 -0.11340616 164.48315483 -0.10610324 C166.3157946 -0.10505268 168.14843991 -0.10744797 169.9810701 -0.1134637 C172.47430101 -0.12112044 174.96721293 -0.1165812 177.4604364 -0.10883266 C178.19320878 -0.11397622 178.92598115 -0.11911978 179.68095875 -0.12441921 C184.67907984 -0.08986573 184.67907984 -0.08986573 186.90735108 2.1384055 C186.53235108 4.7634055 186.53235108 4.7634055 185.90735108 7.1384055 C161.02131657 7.16173153 136.13528369 7.17938322 111.24924046 7.19021767 C99.69508807 7.19538126 88.14094247 7.20242515 76.58679444 7.21384495 C66.52010758 7.22378988 56.45342564 7.23025847 46.38673401 7.232494 C41.05298396 7.23380143 35.71924796 7.23688934 30.3855024 7.24413556 C25.37137449 7.25089275 20.35726649 7.25302308 15.34313446 7.25151318 C13.49717529 7.25178965 11.65121549 7.25379655 9.80526024 7.25761098 C7.29638328 7.26254353 4.78758274 7.26140542 2.27870423 7.25866002 C1.53844594 7.26157286 0.79818766 7.2644857 0.03549731 7.26748681 C-4.97852771 7.25252671 -4.97852771 7.25252671 -6.09264892 6.1384055 C-6.21764892 3.6384055 -6.21764892 3.6384055 -6.09264892 1.1384055 C-4.39377747 -0.56046595 -2.26704011 0.01103217 0 0 Z " fill="#D2BB8E" transform="translate(89.09264892339706,442.8615944981575)"/>
<path d="M0 0 C1.65 0 3.3 0 5 0 C5 69.96 5 139.92 5 212 C5.66 212.33 6.32 212.66 7 213 C4.69 213.33 2.38 213.66 0 214 C-0.15387533 186.83616949 -0.30190937 159.67231261 -0.4429636 132.50841236 C-0.50859211 119.89613498 -0.57614187 107.28387332 -0.64819336 94.67163086 C-0.7109786 83.6805489 -0.77018065 72.68945452 -0.82505554 61.6983301 C-0.85424488 55.87706755 -0.88524502 50.0558272 -0.92053413 44.23459816 C-0.95368014 38.75756158 -0.98204177 33.28052124 -1.00670624 27.80344009 C-1.01661512 25.79144656 -1.02828418 23.77946082 -1.04183006 21.76748848 C-1.06004256 19.02356491 -1.07196041 16.27968374 -1.08229065 13.53572083 C-1.08909444 12.73707684 -1.09589823 11.93843285 -1.10290819 11.11558753 C-1.1106624 7.28103207 -0.93777044 3.72661708 0 0 Z " fill="#FACB9C" transform="translate(363,37)"/>
<path d="M0 0 C2.64 0 5.28 0 8 0 C8.33 1.98 8.66 3.96 9 6 C9.639375 6.12375 10.27875 6.2475 10.9375 6.375 C11.9584375 6.684375 11.9584375 6.684375 13 7 C13.33 7.66 13.66 8.32 14 9 C14.66 9.33 15.32 9.66 16 10 C16.99 9.34 17.98 8.68 19 8 C23.19111165 5.90444417 28.44766121 6.44157977 33 7 C35.97361086 9.21563162 37.36959793 10.73919585 39 14 C39.36294301 17.50965094 39.46744 21.03825349 39.625 24.5625 C39.6765625 25.54669922 39.728125 26.53089844 39.78125 27.54492188 C39.82507813 28.48013672 39.86890625 29.41535156 39.9140625 30.37890625 C39.9548291 31.2407251 39.9955957 32.10254395 40.03759766 32.99047852 C40 35 40 35 39 36 C36.69183286 35.81932155 34.42106834 35.48002249 32.12890625 35.15625 C29.94653395 34.81361475 29.94653395 34.81361475 28 36 C20.87591241 36.58394161 20.87591241 36.58394161 17 34 C16.34 33.34 15.68 32.68 15 32 C14.67 32.66 14.34 33.32 14 34 C12 36 12 36 8.0625 36.5 C5.02603543 36.34371138 4.11823606 36.08488742 1.5625 34.25 C-1.5114752 29.82347571 -1.00204895 26.02458737 -0.5625 20.75 C-0.40974609 18.85507812 -0.40974609 18.85507812 -0.25390625 16.921875 C-0.17011719 15.95765625 -0.08632813 14.9934375 0 14 C-1.32 13.67 -2.64 13.34 -4 13 C-4 11.02 -4 9.04 -4 7 C-3.01 6.67 -2.02 6.34 -1 6 C-1.33 5.34 -1.66 4.68 -2 4 C-1.0625 1.875 -1.0625 1.875 0 0 Z M8 14 C7.97306425 16.12493141 7.95363372 18.24995912 7.9375 20.375 C7.92589844 21.55835938 7.91429687 22.74171875 7.90234375 23.9609375 C7.78533407 26.91921521 7.78533407 26.91921521 9 29 C11.52733235 29.65555119 11.52733235 29.65555119 14 30 C14.17015625 29.37351562 14.3403125 28.74703125 14.515625 28.1015625 C14.75796875 27.28429687 15.0003125 26.46703125 15.25 25.625 C15.59804688 24.40683594 15.59804688 24.40683594 15.953125 23.1640625 C17 21 17 21 18.8125 19.75 C21.16613406 18.94303975 23.2734985 18.59351484 25.75 18.375 C26.54921875 18.30023438 27.3484375 18.22546875 28.171875 18.1484375 C29.07679688 18.07496094 29.07679688 18.07496094 30 18 C29.73323796 16.01508358 29.73323796 16.01508358 29 14 C28.01 13.67 27.02 13.34 26 13 C25.401875 13.474375 24.80375 13.94875 24.1875 14.4375 C21.3425273 16.46962336 19.41711283 16.23298497 16 16 C15.67 14.68 15.34 13.36 15 12 C12.3534665 12 10.4191837 12.98139634 8 14 Z M23 25 C23 26.32 23 27.64 23 29 C24.98 29 26.96 29 29 29 C29.33 27.35 29.66 25.7 30 24 C26.51418144 22.7979936 26.32007656 22.78661563 23 25 Z " fill="#ECAB24" transform="translate(378,436)"/>
<path d="M0 0 C7.25488121 0.07151581 12.1323807 0.87174668 17.8125 5.6875 C21.84942606 10.5555579 22.84496786 15.00922134 22.9375 21.25 C22.31366934 26.70604275 20.49252725 31.00371745 16.9375 35.25 C11.32016978 38.71601226 6.19387562 39.39102556 -0.3125 39.375 C-1.89804687 39.37886719 -1.89804687 39.37886719 -3.515625 39.3828125 C-6.0625 39.25 -6.0625 39.25 -7.0625 38.25 C-7.16349488 35.52275721 -7.20220529 32.82137477 -7.1953125 30.09375 C-7.19626923 29.27628296 -7.19722595 28.45881592 -7.19821167 27.61657715 C-7.19889345 25.88484622 -7.19703929 24.15311276 -7.19287109 22.42138672 C-7.18752279 19.76133518 -7.19281612 17.1014525 -7.19921875 14.44140625 C-7.19855797 12.76302046 -7.1972768 11.08463477 -7.1953125 9.40625 C-7.19733673 8.60521851 -7.19936096 7.80418701 -7.20144653 6.97888184 C-7.17223652 0.14504529 -6.73445562 0.0927824 0 0 Z M1.9375 8.25 C1.9375 15.84 1.9375 23.43 1.9375 31.25 C8.58910585 32.01653272 8.58910585 32.01653272 11.33984375 29.15625 C14.14253197 24.0579614 13.76911985 18.89778352 12.9375 13.25 C11.07817097 9.8018732 11.07817097 9.8018732 7.9375 8.25 C5.9575 8.25 3.9775 8.25 1.9375 8.25 Z " fill="#F4AA20" transform="translate(295.0625,432.75)"/>
<path d="M0 0 C0.88816406 0.01353516 1.77632813 0.02707031 2.69140625 0.04101562 C4.87822578 0.07628691 7.06379966 0.12557248 9.25 0.1875 C9.37415248 4.63483299 9.46459457 9.0812326 9.5246582 13.52978516 C9.54971095 15.04103174 9.58376377 16.55215824 9.62719727 18.06298828 C9.6882669 20.24281501 9.71629916 22.42103262 9.73828125 24.6015625 C9.76446533 25.9107666 9.79064941 27.2199707 9.81762695 28.56884766 C9.07194958 33.32258101 7.66596803 34.85973256 4.25 38.1875 C-1.3289964 40.04716547 -7.59556355 40.20135245 -12.9375 37.6875 C-13.535625 37.1925 -14.13375 36.6975 -14.75 36.1875 C-14.24396008 34.01875748 -13.75016187 32.18782373 -12.75 30.1875 C-11.9146875 30.4040625 -11.9146875 30.4040625 -11.0625 30.625 C-10.299375 30.810625 -9.53625 30.99625 -8.75 31.1875 C-7.4815625 31.496875 -7.4815625 31.496875 -6.1875 31.8125 C-3.61901927 32.39762014 -3.61901927 32.39762014 -0.75 31.1875 C-0.42 30.5275 -0.09 29.8675 0.25 29.1875 C-0.41386719 29.24550781 -1.07773437 29.30351562 -1.76171875 29.36328125 C-9.02107062 29.73419704 -9.02107062 29.73419704 -12.75 26.9375 C-17.04088031 21.03753958 -17.43004758 16.40646667 -16.75 9.1875 C-13.53294346 0.1797417 -8.66997173 -0.24972592 0 0 Z M-7.75 9.1875 C-9.37540997 14.56385604 -8.15503103 17.37743795 -5.75 22.1875 C-3.33354218 22.35437448 -3.33354218 22.35437448 -0.75 22.1875 C1.50075045 20.35638152 1.50075045 20.35638152 1.515625 17.65625 C1.51046875 16.6765625 1.5053125 15.696875 1.5 14.6875 C1.50515625 13.7078125 1.5103125 12.728125 1.515625 11.71875 C1.50075045 9.01861848 1.50075045 9.01861848 -0.75 7.1875 C-4.7174509 6.75280472 -4.7174509 6.75280472 -7.75 9.1875 Z " fill="#FAA41B" transform="translate(349.75,442.8125)"/>
<path d="M0 0 C1.4540625 0.0309375 1.4540625 0.0309375 2.9375 0.0625 C2.9375 0.7225 2.9375 1.3825 2.9375 2.0625 C25.7075 2.0625 48.4775 2.0625 71.9375 2.0625 C71.9375 3.0525 71.9375 4.0425 71.9375 5.0625 C110.2175 5.3925 148.4975 5.7225 187.9375 6.0625 C187.9375 6.3925 187.9375 6.7225 187.9375 7.0625 C163.05146549 7.08582603 138.16543261 7.10347771 113.27938938 7.11431217 C101.725237 7.11947576 90.17109139 7.12651965 78.61694336 7.13793945 C68.55025651 7.14788437 58.48357456 7.15435297 48.41688293 7.15658849 C43.08313289 7.15789593 37.74939688 7.16098384 32.41565132 7.16823006 C27.40152341 7.17498725 22.38741541 7.17711758 17.37328339 7.17560768 C15.52732421 7.17588415 13.68136442 7.17789104 11.83540916 7.18170547 C9.3265322 7.18663803 6.81773167 7.18549992 4.30885315 7.18275452 C3.56859487 7.18566736 2.82833658 7.1885802 2.06564623 7.19158131 C-2.94837879 7.17662121 -2.94837879 7.17662121 -4.0625 6.0625 C-4.1875 3.5625 -4.1875 3.5625 -4.0625 1.0625 C-3.0625 0.0625 -3.0625 0.0625 0 0 Z " fill="#EABC96" transform="translate(87.0625,442.9375)"/>
<path d="M0 0 C0.66 0.33 1.32 0.66 2 1 C1.67 76.9 1.34 152.8 1 231 C13.25150084 234.86504695 13.25150084 234.86504695 18 233 C18 233.66 18 234.32 18 235 C19.32 235.33 20.64 235.66 22 236 C22 236.66 22 237.32 22 238 C22.66 238 23.32 238 24 238 C24.33 237.01 24.66 236.02 25 235 C26.485 235.99 26.485 235.99 28 237 C28 237.99 28 238.98 28 240 C30.64 240 33.28 240 36 240 C36 240.66 36 241.32 36 242 C40.29 242.99 44.58 243.98 49 245 C48.67 244.34 48.34 243.68 48 243 C49.32 243 50.64 243 52 243 C52 243.66 52 244.32 52 245 C53.65 245 55.3 245 57 245 C56.67 245.99 56.34 246.98 56 248 C59.2516169 249.67649313 62.56786908 251.13901153 65.9375 252.5625 C67.46697266 253.21412109 67.46697266 253.21412109 69.02734375 253.87890625 C71.70285775 254.88793715 74.18542833 255.53867978 77 256 C77 256.66 77 257.32 77 258 C70.40654484 256.6613288 64.20416009 254.83117154 57.875 252.5625 C57.02035156 252.26279297 56.16570312 251.96308594 55.28515625 251.65429688 C51.53869765 250.3277858 47.83253764 248.96481737 44.1875 247.37890625 C41.51614278 246.22328236 38.89715908 245.24789438 36.125 244.375 C32.10891089 243.10891089 32.10891089 243.10891089 31 242 C29.2984375 242.0309375 29.2984375 242.0309375 27.5625 242.0625 C24 242 24 242 22 240 C20.44869442 239.4109463 18.87046413 238.89148443 17.28125 238.4140625 C15.88326172 237.97707031 15.88326172 237.97707031 14.45703125 237.53125 C12.48785287 236.92775015 10.51647748 236.3313724 8.54296875 235.7421875 C7.61097656 235.44828125 6.67898437 235.154375 5.71875 234.8515625 C4.43387695 234.46218506 4.43387695 234.46218506 3.12304688 234.06494141 C0.46565247 232.73196597 0.09917864 231.71658543 -1 229 C-1.18871847 225.98483238 -1.26534197 223.0633836 -1.24723816 220.04872131 C-1.24965257 219.13411571 -1.25206699 218.21951012 -1.25455457 217.2771892 C-1.26020035 214.20563537 -1.2515217 211.1342887 -1.24291992 208.06274414 C-1.24399259 205.86339766 -1.24593105 203.66405145 -1.24867249 201.46470642 C-1.25352663 195.48543159 -1.24585773 189.50623121 -1.23571944 183.52696538 C-1.22694673 177.2752562 -1.22869625 171.02354941 -1.2290802 164.77183533 C-1.22814311 154.27113727 -1.21950748 143.77046338 -1.20581055 133.26977539 C-1.1917265 122.46671017 -1.18463964 111.66367023 -1.18530273 100.8605957 C-1.18534269 100.1953866 -1.18538265 99.5301775 -1.18542381 98.84481055 C-1.18546417 98.18075044 -1.18550452 97.51669034 -1.1855461 96.83250719 C-1.18620122 85.15746775 -1.18105169 73.48243804 -1.17275429 61.80740166 C-1.16922099 56.8350256 -1.16739097 51.8626532 -1.16686058 46.89027596 C-1.16585676 41.03560158 -1.15975687 35.18095382 -1.14969444 29.32628822 C-1.14677108 27.17562269 -1.14554374 25.02495409 -1.14612198 22.87428665 C-1.14661202 19.94225016 -1.14096328 17.01028841 -1.13371277 14.07826233 C-1.13526137 13.2239826 -1.13680997 12.36970286 -1.1384055 11.48953587 C-1.12218082 7.5256598 -0.98437419 3.86949516 0 0 Z " fill="#0685C4" transform="translate(36,141)"/>
<path d="M0 0 C0.99 0.33 1.98 0.66 3 1 C2.67 70.3 2.34 139.6 2 211 C2.99 211.33 3.98 211.66 5 212 C5 212.33 5 212.66 5 213 C3.35 213 1.7 213 0 213 C-0.15384095 185.81889858 -0.30187592 158.63777094 -0.4429636 131.45660019 C-0.50860624 118.83644715 -0.57616217 106.21630973 -0.64819336 93.59619141 C-0.71095725 82.59889299 -0.77016076 71.60158222 -0.82505554 60.60424161 C-0.85425779 54.77909866 -0.88526549 48.95397774 -0.92053413 43.1288681 C-0.95365404 37.64937224 -0.98202391 32.16987258 -1.00670624 26.69033241 C-1.01662377 24.67630633 -1.02829624 22.66228803 -1.04183006 20.648283 C-1.06001198 17.90400976 -1.07194879 15.15977865 -1.08229065 12.41546631 C-1.08909444 11.61390948 -1.09589823 10.81235265 -1.10290819 9.98650622 C-1.1100193 6.47945818 -0.94270815 3.37350716 0 0 Z " fill="#BCDAAD" transform="translate(363,38)"/>
<path d="M0 0 C12.27906977 1.27906977 12.27906977 1.27906977 16 5 C16.11242062 6.57424845 16.15571556 8.1534822 16.17167664 9.73165894 C16.18435577 10.75522491 16.19703491 11.77879089 16.21009827 12.83337402 C16.21899582 13.96585571 16.22789337 15.0983374 16.23706055 16.26513672 C16.25017273 17.45039948 16.26328491 18.63566223 16.27679443 19.85684204 C16.31152349 23.11718821 16.34167411 26.3775345 16.36918616 29.63794851 C16.38666476 31.67339966 16.40554436 33.70883275 16.42493629 35.74426651 C16.49253705 42.84102963 16.55494766 49.93781681 16.61254883 57.03466797 C16.66642737 63.65634954 16.73152416 70.27785643 16.80188721 76.89938152 C16.86174454 82.57832719 16.91381796 88.25730955 16.95981437 93.93638432 C16.98743784 97.3308157 17.0182315 100.72514664 17.05682945 104.1194725 C17.09782848 107.90499889 17.12610788 111.6904132 17.15112305 115.47607422 C17.17357841 117.16872406 17.17357841 117.16872406 17.19648743 118.89556885 C17.20070709 119.92477448 17.20492676 120.9539801 17.20927429 122.01437378 C17.2171934 122.90997953 17.22511251 123.80558529 17.2332716 124.72833061 C17 127 17 127 15 130 C12.50857544 131.01287842 12.50857544 131.01287842 9.32861328 131.91699219 C8.14042999 132.26034607 6.9522467 132.60369995 5.72805786 132.9574585 C4.42562465 133.32112985 3.12303895 133.68425548 1.8203125 134.046875 C0.48733988 134.42542788 -0.84543151 134.80468998 -2.17800903 135.18463135 C-4.9719887 135.97849304 -7.76807475 136.76430119 -10.56591797 137.54443359 C-14.15017622 138.54444347 -17.72876533 139.56322628 -21.30601311 140.58799362 C-24.05777224 141.37420626 -26.81215935 142.15085438 -29.56744766 142.92459869 C-30.8879291 143.29655894 -32.20760985 143.67137394 -33.52645493 144.04909515 C-35.37152604 144.57587573 -37.22060681 145.08855061 -39.06982422 145.60058594 C-40.64629227 146.04334869 -40.64629227 146.04334869 -42.25460815 146.49505615 C-44.96182166 146.99297808 -46.44220127 146.92220834 -49 146 C-41.71428571 142.57142857 -41.71428571 142.57142857 -37 143 C-37 142.34 -37 141.68 -37 141 C-34.36 141 -31.72 141 -29 141 C-29 140.34 -29 139.68 -29 139 C-27.2508503 138.66223316 -25.50063855 138.32996329 -23.75 138 C-22.77546875 137.814375 -21.8009375 137.62875 -20.796875 137.4375 C-18 137 -18 137 -14 137 C-14 136.34 -14 135.68 -14 135 C-13.07316406 134.79503906 -12.14632812 134.59007812 -11.19140625 134.37890625 C-9.99386719 134.10949219 -8.79632813 133.84007812 -7.5625 133.5625 C-6.36753906 133.29566406 -5.17257812 133.02882813 -3.94140625 132.75390625 C-1.1295314 132.29933252 -1.1295314 132.29933252 0 131 C1.40698298 130.62790533 2.82626498 130.30171868 4.25 130 C5.01828125 129.835 5.7865625 129.67 6.578125 129.5 C9.04997569 128.98968244 11.525035 128.494993 14 128 C14 87.41 14 46.82 14 5 C10.37 4.34 6.74 3.68 3 3 C3 2.34 3 1.68 3 1 C2.01 0.67 1.02 0.34 0 0 Z " fill="#0473CA" transform="translate(341,124)"/>
<path d="M0 0 C0.66 1.32 1.32 2.64 2 4 C2 3.34 2 2.68 2 2 C2.66 2 3.32 2 4 2 C4 1.34 4 0.68 4 0 C4.66 0 5.32 0 6 0 C9.89121932 5.89959058 11.59062808 11.02055099 10.74609375 18.140625 C9.76770523 22.75932398 8.06219511 26.34237806 5 30 C1.22282128 32.41096514 -1.5233339 33.39499995 -6 33 C-5.67 31.02 -5.34 29.04 -5 27 C-7.31 26.67 -9.62 26.34 -12 26 C-12.05786668 22.20839703 -12.09355054 18.41690689 -12.125 14.625 C-12.14175781 13.54476563 -12.15851563 12.46453125 -12.17578125 11.3515625 C-12.18222656 10.3203125 -12.18867188 9.2890625 -12.1953125 8.2265625 C-12.20578613 7.27346191 -12.21625977 6.32036133 -12.22705078 5.33837891 C-12 3 -12 3 -10 1 C-6.5 0.875 -6.5 0.875 -3 1 C-2.34 1 -1.68 1 -1 1 C-0.67 0.67 -0.34 0.34 0 0 Z M-10 3 C-10 10.59 -10 18.18 -10 26 C-3.34839415 26.76653272 -3.34839415 26.76653272 -0.59765625 23.90625 C2.20503197 18.8079614 1.83161985 13.64778352 1 8 C-0.85932903 4.5518732 -0.85932903 4.5518732 -4 3 C-5.98 3 -7.96 3 -10 3 Z " fill="#F9A81D" transform="translate(307,438)"/>
<path d="M0 0 C2.69082872 0.17635452 5.32851446 0.61835921 8 1 C8.02464775 6.53588533 8.04283496 12.071739 8.05493164 17.60766602 C8.05997244 19.4924373 8.06680498 21.37720465 8.07543945 23.26196289 C8.08751617 25.96501636 8.09323068 28.66801831 8.09765625 31.37109375 C8.10281754 32.21900986 8.10797882 33.06692596 8.11329651 33.9405365 C8.11349195 35.96071068 8.06206211 37.98077934 8 40 C7 41 7 41 4.0625 41.125 C1 41 1 41 -1 40 C-1.02464775 34.46411467 -1.04283496 28.928261 -1.05493164 23.39233398 C-1.05997244 21.5075627 -1.06680498 19.62279535 -1.07543945 17.73803711 C-1.08751617 15.03498364 -1.09323068 12.33198169 -1.09765625 9.62890625 C-1.10281754 8.78099014 -1.10797882 7.93307404 -1.11329651 7.0594635 C-1.11349195 5.03928932 -1.06206211 3.01922066 -1 1 C-0.67 0.67 -0.34 0.34 0 0 Z " fill="#F2A922" transform="translate(422,431)"/>
<path d="M0 0 C2.64 0 5.28 0 8 0 C8.33 1.98 8.66 3.96 9 6 C9.639375 6.12375 10.27875 6.2475 10.9375 6.375 C11.9584375 6.684375 11.9584375 6.684375 13 7 C13.33 7.66 13.66 8.32 14 9 C14.66 9.33 15.32 9.66 16 10 C14.25 12 14.25 12 12 14 C10.68 14 9.36 14 8 14 C8.33 20.93 8.66 27.86 9 35 C7.68 35 6.36 35 5 35 C5 34.34 5 33.68 5 33 C3.35 32.67 1.7 32.34 0 32 C-1.30062431 28.18483536 -0.89369853 24.72438237 -0.5625 20.75 C-0.40974609 18.85507812 -0.40974609 18.85507812 -0.25390625 16.921875 C-0.17011719 15.95765625 -0.08632813 14.9934375 0 14 C-1.32 13.67 -2.64 13.34 -4 13 C-4 11.02 -4 9.04 -4 7 C-3.01 6.67 -2.02 6.34 -1 6 C-1.33 5.34 -1.66 4.68 -2 4 C-1.0625 1.875 -1.0625 1.875 0 0 Z " fill="#F5AB1D" transform="translate(378,436)"/>
<path d="M0 0 C4.87509804 -0.34012312 6.89643013 0.53785808 11 3 C13.87386113 3.84113009 16.75809476 4.56441547 19.671875 5.25390625 C20.44015625 5.50011719 21.2084375 5.74632812 22 6 C31.09456492 24.18912984 23 46.66393461 23 67 C86.03 67.33 149.06 67.66 214 68 C214 68.33 214 68.66 214 69 C189.01812312 69.02333731 164.03624787 69.04098328 139.0543623 69.05181217 C127.45542728 69.05697335 115.85649903 69.06401269 104.25756836 69.07543945 C94.15057649 69.0853917 84.04358951 69.09185472 73.93659288 69.09408849 C68.58265821 69.09539468 63.22873755 69.09847474 57.87480736 69.10573006 C52.83933306 69.11249878 47.8038786 69.11461521 42.76840019 69.11310768 C40.91683088 69.11338362 39.06526092 69.11538371 37.21369553 69.11920547 C34.69238104 69.12415598 32.17114217 69.12299322 29.64982605 69.12025452 C28.54234073 69.12462378 28.54234073 69.12462378 27.41248196 69.12908131 C24.3285713 69.1199818 21.9503309 68.98344363 19 68 C19.33 47.87 19.66 27.74 20 7 C18.35 7 16.7 7 15 7 C15 6.34 15 5.68 15 5 C13.02 5 11.04 5 9 5 C9 4.34 9 3.68 9 3 C7.35 3 5.7 3 4 3 C4 2.34 4 1.68 4 1 C2.68 0.67 1.36 0.34 0 0 Z " fill="#F6AB42" transform="translate(61,382)"/>
<path d="M0 0 C0.33 0 0.66 0 1 0 C0.67 2.31 0.34 4.62 0 7 C1.32 7 2.64 7 4 7 C3.67 5.68 3.34 4.36 3 3 C6.3 3 9.6 3 13 3 C13 3.33 13 3.66 13 4 C11.02 4.66 9.04 5.32 7 6 C5.88341499 10.68965706 6.19380477 13.53763531 8 18 C11.62885324 18.15149298 11.62885324 18.15149298 15 17 C14.34 18.32 13.68 19.64 13 21 C12.01 21 11.02 21 10 21 C10.33 21.66 10.66 22.32 11 23 C14.02934491 23.65772428 14.02934491 23.65772428 17 24 C17 24.99 17 25.98 17 27 C16.34 27 15.68 27 15 27 C15.33 28.65 15.66 30.3 16 32 C12.37 31.67 8.74 31.34 5 31 C5.33 31.99 5.66 32.98 6 34 C8.97 34.33 11.94 34.66 15 35 C15 35.33 15 35.66 15 36 C3.29384966 36.55353075 3.29384966 36.55353075 -1 33 C-0.49396008 30.83125748 -0.00016187 29.00032373 1 27 C1.8353125 27.2165625 1.8353125 27.2165625 2.6875 27.4375 C3.450625 27.623125 4.21375 27.80875 5 28 C6.2684375 28.309375 6.2684375 28.309375 7.5625 28.625 C10.13098073 29.21012014 10.13098073 29.21012014 13 28 C13.33 27.34 13.66 26.68 14 26 C13.33613281 26.05800781 12.67226563 26.11601562 11.98828125 26.17578125 C4.72892938 26.54669704 4.72892938 26.54669704 1 23.75 C-3.27713637 17.86893749 -3.71713494 13.20252916 -3 6 C-1.5 2.3125 -1.5 2.3125 0 0 Z " fill="#E8AB27" transform="translate(336,446)"/>
<path d="M0 0 C2.64 0 5.28 0 8 0 C4.71240567 1.77514173 1.36654728 2.92399277 -2.1875 4.0625 C-5.883187 5.01459466 -5.883187 5.01459466 -9 7 C-9.10868162 8.83458175 -9.14688416 10.6733605 -9.15821838 12.51112366 C-9.17290161 14.30540047 -9.17290161 14.30540047 -9.18788147 16.13592529 C-9.19378641 17.47351034 -9.19959681 18.81109581 -9.20532227 20.14868164 C-9.21489553 21.54782911 -9.22490528 22.94697366 -9.23532104 24.34611511 C-9.262436 28.15583309 -9.28340975 31.96556354 -9.30332303 35.77532506 C-9.32514208 39.75253799 -9.35255067 43.72971219 -9.37937927 47.70689392 C-9.42936152 55.2433573 -9.47427975 62.77984212 -9.51740164 70.31634754 C-9.56672684 78.89422579 -9.6216624 87.47206519 -9.67708123 96.0499059 C-9.79098617 113.69990122 -9.89780657 131.34993318 -10 149 C-11.9175917 149.80165715 -13.83545527 150.60266401 -15.75343323 151.40339661 C-16.82141427 151.8495271 -17.88939531 152.2956576 -18.98973942 152.7553072 C-22.42007119 154.17369247 -25.86611144 155.51591698 -29.33984375 156.82421875 C-29.95469131 157.05655716 -30.56953888 157.28889557 -31.20301819 157.52827454 C-33.11379547 158.24993437 -35.02558595 158.968858 -36.9375 159.6875 C-38.87419034 160.41741814 -40.81065768 161.14792294 -42.7469635 161.87886047 C-44.48447924 162.53446246 -46.22256808 163.18854503 -47.96069336 163.8425293 C-49.90554243 164.58319356 -51.84040099 165.35100936 -53.76074219 166.15307617 C-57.38454314 167.5236568 -60.23274751 166.63851737 -64 166 C-61.9353439 165.46471879 -59.92604543 164.98943506 -57.8125 164.6875 C-54.43143318 163.861017 -51.49095657 162.4946968 -48.3359375 161.04296875 C-46.18364493 160.08199531 -44.02792818 159.23963779 -41.8125 158.4375 C-39.38889417 157.55618879 -37.25184037 156.6182859 -34.9375 155.4375 C-30.9979407 153.50963055 -26.96463005 152.42478488 -22.6875 151.5 C-20.75543811 151.07349935 -20.75543811 151.07349935 -19 149 C-16.68234271 148.28072705 -14.34904126 147.6090107 -12 147 C-11.99945523 146.27701092 -11.99891047 145.55402184 -11.99834919 144.80912399 C-11.98338756 127.22423947 -11.94096601 109.6396366 -11.86790943 92.05489731 C-11.83324335 83.55105465 -11.8079018 75.04737436 -11.80444336 66.54345703 C-11.80140569 59.13217133 -11.78094214 51.72117468 -11.73947543 44.31000066 C-11.7181254 40.38506472 -11.70555486 36.46053991 -11.71384621 32.53554535 C-11.72137405 28.84171273 -11.70561694 25.14871398 -11.67193985 21.45503426 C-11.65975536 19.45196291 -11.67231309 17.44878907 -11.68556213 15.44572449 C-11.67027466 14.25383011 -11.65498718 13.06193573 -11.63923645 11.83392334 C-11.63647107 10.79782803 -11.63370569 9.76173271 -11.63085651 8.69424057 C-11 6 -11 6 -8.66707897 3.65100479 C-5.51636666 1.70061593 -3.64014671 1.6613817 0 2 C0 1.34 0 0.68 0 0 Z " fill="#138ED6" transform="translate(284,271)"/>
<path d="M0 0 C2.05078125 0.03255208 4.1015625 0.06510417 6.15234375 0.09765625 C6.99627213 3.70004812 7.22807269 6.889902 7.06640625 10.58203125 C7.02257812 11.59910156 6.97875 12.61617188 6.93359375 13.6640625 C6.88203125 14.71464844 6.83046875 15.76523437 6.77734375 16.84765625 C6.73351562 17.91371094 6.6896875 18.97976563 6.64453125 20.078125 C6.28273636 27.96726364 6.28273636 27.96726364 5.15234375 29.09765625 C-0.37706801 29.33295037 -0.37706801 29.33295037 -2.84765625 28.09765625 C-2.87651963 23.61850297 -2.89440812 19.13937334 -2.91015625 14.66015625 C-2.91853516 13.38076172 -2.92691406 12.10136719 -2.93554688 10.78320312 C-2.93876953 9.56826172 -2.94199219 8.35332031 -2.9453125 7.1015625 C-2.95054932 5.97564697 -2.95578613 4.84973145 -2.96118164 3.68969727 C-2.8060772 0.14831275 -2.8060772 0.14831275 0 0 Z " fill="#F4A81F" transform="translate(365.84765625,442.90234375)"/>
<path d="M0 0 C2.64 0 5.28 0 8 0 C9 1 9 1 9.11352539 3.59204102 C9.10828857 4.71795654 9.10305176 5.84387207 9.09765625 7.00390625 C9.09443359 8.21884766 9.09121094 9.43378906 9.08789062 10.68554688 C9.07951172 11.96494141 9.07113281 13.24433594 9.0625 14.5625 C9.05798828 15.84576172 9.05347656 17.12902344 9.04882812 18.45117188 C9.03699545 21.63416022 9.02051068 24.81705762 9 28 C2.25 29.125 2.25 29.125 0 28 C0 18.76 0 9.52 0 0 Z " fill="#F9A41C" transform="translate(321,443)"/>
<path d="M0 0 C2.31 0 4.62 0 7 0 C7 69.96 7 139.92 7 212 C9.31 211.67 11.62 211.34 14 211 C14.495 209.02 14.495 209.02 15 207 C17.50357861 207.8345262 19.66785852 208.79371992 22 210 C20.27318563 210.50806447 18.54342021 211.00610467 16.8125 211.5 C15.36810547 211.91765625 15.36810547 211.91765625 13.89453125 212.34375 C11 213 11 213 6 213 C6 143.04 6 73.08 6 1 C4.02 1.33 2.04 1.66 0 2 C0 1.34 0 0.68 0 0 Z " fill="#F3A433" transform="translate(362,36)"/>
<path d="M0 0 C1.32 0.33 2.64 0.66 4 1 C4 1.99 4 2.98 4 4 C66.04 4.33 128.08 4.66 192 5 C192 5.33 192 5.66 192 6 C167.11396549 6.02332603 142.22793261 6.04097771 117.34188938 6.05181217 C105.787737 6.05697576 94.23359139 6.06401965 82.67944336 6.07543945 C72.61275651 6.08538437 62.54607456 6.09185297 52.47938293 6.09408849 C47.14563289 6.09539593 41.81189688 6.09848384 36.47815132 6.10573006 C31.46402341 6.11248725 26.44991541 6.11461758 21.43578339 6.11310768 C19.58982421 6.11338415 17.74386442 6.11539104 15.89790916 6.11920547 C13.3890322 6.12413803 10.88023167 6.12299992 8.37135315 6.12025452 C7.63109487 6.12316736 6.89083658 6.1260802 6.12814623 6.12908131 C1.11412121 6.11412121 1.11412121 6.11412121 0 5 C-0.04063832 3.33382885 -0.042721 1.66611905 0 0 Z " fill="#F6BC83" transform="translate(83,444)"/>
<path d="M0 0 C4.87509804 -0.34012312 6.89643013 0.53785808 11 3 C13.87386113 3.84113009 16.75809476 4.56441547 19.671875 5.25390625 C20.44015625 5.50011719 21.2084375 5.74632812 22 6 C23.27469407 8.54938815 23.12016184 10.33040998 23.11352539 13.18408203 C23.11344986 14.26505157 23.11337433 15.34602112 23.11329651 16.45974731 C23.10813522 17.63060883 23.10297394 18.80147034 23.09765625 20.0078125 C23.0962413 21.20356903 23.09482635 22.39932556 23.09336853 23.63131714 C23.08775663 27.46256987 23.07520208 31.29376484 23.0625 35.125 C23.05748653 37.71744707 23.05292336 40.30989506 23.04882812 42.90234375 C23.03778333 49.26824898 23.02103359 55.63412037 23 62 C22.34 62 21.68 62 21 62 C21 63.98 21 65.96 21 68 C20.34 68 19.68 68 19 68 C19.33 47.87 19.66 27.74 20 7 C18.35 7 16.7 7 15 7 C15 6.34 15 5.68 15 5 C13.02 5 11.04 5 9 5 C9 4.34 9 3.68 9 3 C7.35 3 5.7 3 4 3 C4 2.34 4 1.68 4 1 C2.68 0.67 1.36 0.34 0 0 Z " fill="#C6AE3B" transform="translate(61,382)"/>
<path d="M0 0 C0.77943466 0.00222061 1.55886932 0.00444122 2.36192322 0.00672913 C3.68317955 0.00684242 3.68317955 0.00684242 5.03112793 0.00695801 C5.98841293 0.01211929 6.94569794 0.01728058 7.93199158 0.02259827 C9.39480812 0.02472069 9.39480812 0.02472069 10.88717651 0.02688599 C14.01542675 0.03250319 17.14360656 0.04505859 20.27183533 0.05775452 C22.38706867 0.0627673 24.50230313 0.06733059 26.61753845 0.07142639 C31.81482829 0.0824782 37.01207678 0.09923305 42.20933533 0.12025452 C42.20933533 0.45025452 42.20933533 0.78025452 42.20933533 1.12025452 C33.43545551 1.82782547 24.96150503 2.48778103 16.20933533 1.12025452 C16.20933533 2.44025452 16.20933533 3.76025452 16.20933533 5.12025452 C18.18933533 5.12025452 20.16933533 5.12025452 22.20933533 5.12025452 C22.20933533 5.45025452 22.20933533 5.78025452 22.20933533 6.12025452 C14.61933533 6.12025452 7.02933533 6.12025452 -0.79066467 6.12025452 C-0.79066467 5.13025452 -0.79066467 4.14025452 -0.79066467 3.12025452 C-1.45066467 2.46025452 -2.11066467 1.80025452 -2.79066467 1.12025452 C-1.79066467 0.12025452 -1.79066467 0.12025452 0 0 Z " fill="#C9C79B" transform="translate(223.79066467285156,442.87974548339844)"/>
<path d="M0 0 C0.66 0 1.32 0 2 0 C1.35446167 2.36599731 1.35446167 2.36599731 0 5 C-2.49142456 6.25338745 -2.49142456 6.25338745 -5.67138672 7.14404297 C-6.85957001 7.48724579 -8.0477533 7.83044861 -9.27194214 8.18405151 C-10.57432641 8.53749213 -11.8769135 8.89018613 -13.1796875 9.2421875 C-14.51288658 9.61707217 -15.84565594 9.9934881 -17.17800903 10.37136841 C-19.97061162 11.15876401 -22.76656569 11.93226836 -25.56591797 12.6953125 C-29.15200208 13.67325222 -32.72996769 14.67765645 -36.30601311 15.69161797 C-39.05759038 16.47000306 -41.81198107 17.23798415 -44.56744766 18.00247574 C-45.88777458 18.36936656 -47.20745243 18.7386016 -48.52645493 19.11022568 C-50.37147755 19.62756404 -52.22058246 20.13027603 -54.06982422 20.63232422 C-55.12080292 20.92146698 -56.17178162 21.21060974 -57.25460815 21.5085144 C-59.95636996 21.99218926 -61.44815599 21.91695468 -64 21 C-56.71428571 17.57142857 -56.71428571 17.57142857 -52 18 C-52 17.34 -52 16.68 -52 16 C-49.36 16 -46.72 16 -44 16 C-44 15.34 -44 14.68 -44 14 C-42.2508503 13.66223316 -40.50063855 13.32996329 -38.75 13 C-37.77546875 12.814375 -36.8009375 12.62875 -35.796875 12.4375 C-33 12 -33 12 -29 12 C-29 11.34 -29 10.68 -29 10 C-28.07316406 9.79503906 -27.14632812 9.59007812 -26.19140625 9.37890625 C-24.99386719 9.10949219 -23.79632813 8.84007812 -22.5625 8.5625 C-21.36753906 8.29566406 -20.17257812 8.02882813 -18.94140625 7.75390625 C-16.1295314 7.29933252 -16.1295314 7.29933252 -15 6 C-13.59301702 5.62790533 -12.17373502 5.30171868 -10.75 5 C-9.94175781 4.82726562 -9.13351562 4.65453125 -8.30078125 4.4765625 C-5.86932336 3.97293285 -3.43785073 3.47184208 -1 3 C-0.67 2.01 -0.34 1.02 0 0 Z " fill="#0C80D1" transform="translate(356,249)"/>
<path d="M0 0 C1.65 0 3.3 0 5 0 C5.06058594 0.67546875 5.12117188 1.3509375 5.18359375 2.046875 C5.26738281 2.93890625 5.35117187 3.8309375 5.4375 4.75 C5.55931641 6.07257813 5.55931641 6.07257813 5.68359375 7.421875 C5.96280234 9.69690794 6.43677484 11.7846477 7 14 C7.03786901 15.66623639 7.04627845 17.33397597 7 19 C5.68 19 4.36 19 3 19 C3 18.34 3 17.68 3 17 C1.68 17 0.36 17 -1 17 C-1.02691685 14.54159395 -1.04679802 12.08348118 -1.0625 9.625 C-1.07087891 8.92632812 -1.07925781 8.22765625 -1.08789062 7.5078125 C-1.11328125 2.2265625 -1.11328125 2.2265625 0 0 Z " fill="#FCA41A" transform="translate(380,452)"/>
<path d="M0 0 C0.78028564 0.01571045 1.56057129 0.0314209 2.36450195 0.04760742 C3.21206055 0.05727539 4.05961914 0.06694336 4.93286133 0.0769043 C5.81393555 0.10204102 6.69500977 0.12717773 7.6027832 0.15307617 C8.49545898 0.16661133 9.38813477 0.18014648 10.30786133 0.1940918 C12.51094486 0.22943538 14.71280903 0.27877124 16.9152832 0.34057617 C17.03943569 4.78790916 17.12987778 9.23430877 17.18994141 13.68286133 C17.21499416 15.19410791 17.24904697 16.70523442 17.29248047 18.21606445 C17.3535501 20.39589119 17.38158236 22.5741088 17.40356445 24.75463867 C17.42974854 26.06384277 17.45593262 27.37304688 17.48291016 28.72192383 C16.74168636 33.44726536 15.30616486 35.03935648 11.9152832 38.34057617 C11.2552832 38.34057617 10.5952832 38.34057617 9.9152832 38.34057617 C10.5752832 36.69057617 11.2352832 35.04057617 11.9152832 33.34057617 C12.9052832 33.34057617 13.8952832 33.34057617 14.9152832 33.34057617 C14.90742798 32.03854248 14.90742798 32.03854248 14.89941406 30.71020508 C14.88238458 27.49357344 14.86983912 24.27696476 14.86035156 21.06030273 C14.8553189 19.66739141 14.84849222 18.27448537 14.83984375 16.8815918 C14.82773169 14.88096371 14.82257908 12.88029729 14.81762695 10.87963867 C14.81239014 9.6751709 14.80715332 8.47070312 14.80175781 7.22973633 C14.9152832 4.34057617 14.9152832 4.34057617 15.9152832 2.34057617 C5.5202832 2.83557617 5.5202832 2.83557617 -5.0847168 3.34057617 C-2.0847168 0.34057617 -2.0847168 0.34057617 0 0 Z " fill="#CDB83B" transform="translate(342.084716796875,442.659423828125)"/>
<path d="M0 0 C0.99 0.33 1.98 0.66 3 1 C2.67 30.37 2.34 59.74 2 90 C1.67 90 1.34 90 1 90 C0.98969254 88.9815802 0.97938507 87.9631604 0.96876526 86.91387939 C0.87104431 77.32013973 0.7683114 67.72646511 0.66066074 58.13283157 C0.60547681 53.20055614 0.55206401 48.26827474 0.50268555 43.3359375 C0.45497524 38.57671715 0.40262995 33.81756836 0.34705925 29.05843353 C0.32666592 27.2419691 0.30794787 25.42548506 0.29092598 23.6089859 C0.26681508 21.06640028 0.23676966 18.5239493 0.20532227 15.98144531 C0.1995668 15.22906586 0.19381134 14.4766864 0.18788147 13.70150757 C0.14011598 10.30794609 -0.08509864 7.26662441 -1 4 C-0.5625 1.75 -0.5625 1.75 0 0 Z " fill="#E4E0B8" transform="translate(363,38)"/>
<path d="M0 0 C2.3671875 1.53125 2.3671875 1.53125 4 3 C3.67 3.66 3.34 4.32 3 5 C2.34 4.34 1.68 3.68 1 3 C-1.20250992 2.53993654 -1.20250992 2.53993654 -3.625 2.375 C-4.44226563 2.30023438 -5.25953125 2.22546875 -6.1015625 2.1484375 C-6.72804688 2.09945313 -7.35453125 2.05046875 -8 2 C-8 2.66 -8 3.32 -8 4 C-7.01 4 -6.02 4 -5 4 C-5 4.66 -5 5.32 -5 6 C-9.0909066 9.31168629 -11.73628638 10.50130606 -17 10 C-17.33 8.35 -17.66 6.7 -18 5 C-12.83992333 -0.73341852 -7.5228026 -1.25729291 0 0 Z " fill="#D5B332" transform="translate(411,443)"/>
<path d="M0 0 C0.66 1.32 1.32 2.64 2 4 C2 3.34 2 2.68 2 2 C2.66 2 3.32 2 4 2 C4 1.34 4 0.68 4 0 C4.66 0 5.32 0 6 0 C6.66 1.65 7.32 3.3 8 5 C6.35 5 4.7 5 3 5 C2.67 7.64 2.34 10.28 2 13 C1.67 13 1.34 13 1 13 C0.5978125 11.329375 0.5978125 11.329375 0.1875 9.625 C-0.65809019 5.78159049 -0.65809019 5.78159049 -4 4 C-6.97 3.505 -6.97 3.505 -10 3 C-10 10.59 -10 18.18 -10 26 C-10.66 26 -11.32 26 -12 26 C-12.05786668 22.20839703 -12.09355054 18.41690689 -12.125 14.625 C-12.14175781 13.54476563 -12.15851563 12.46453125 -12.17578125 11.3515625 C-12.18222656 10.3203125 -12.18867188 9.2890625 -12.1953125 8.2265625 C-12.20578613 7.27346191 -12.21625977 6.32036133 -12.22705078 5.33837891 C-12 3 -12 3 -10 1 C-6.5 0.875 -6.5 0.875 -3 1 C-2.34 1 -1.68 1 -1 1 C-0.67 0.67 -0.34 0.34 0 0 Z " fill="#D7B433" transform="translate(307,438)"/>
<path d="M0 0 C2.64 0 5.28 0 8 0 C9 1 9 1 9.11352539 3.59204102 C9.10828857 4.71795654 9.10305176 5.84387207 9.09765625 7.00390625 C9.09443359 8.21884766 9.09121094 9.43378906 9.08789062 10.68554688 C9.07951172 11.96494141 9.07113281 13.24433594 9.0625 14.5625 C9.05798828 15.84576172 9.05347656 17.12902344 9.04882812 18.45117188 C9.03699545 21.63416022 9.02051068 24.81705762 9 28 C8.67 28 8.34 28 8 28 C8 19.42 8 10.84 8 2 C6.02 2 4.04 2 2 2 C2 10.58 2 19.16 2 28 C1.34 28 0.68 28 0 28 C0 18.76 0 9.52 0 0 Z " fill="#C6B93F" transform="translate(321,443)"/>
<path d="M0 0 C0.33 0 0.66 0 1 0 C0.67 2.31 0.34 4.62 0 7 C1.32 7 2.64 7 4 7 C3.67 5.68 3.34 4.36 3 3 C6.3 3 9.6 3 13 3 C13 3.33 13 3.66 13 4 C11.02 4.66 9.04 5.32 7 6 C6.07155611 10.33273814 6.07155611 13.66726186 7 18 C6.34 17.67 5.68 17.34 5 17 C4.59270772 14.67843403 4.25561323 12.3431213 4 10 C2.35 10 0.7 10 -1 10 C-1 12.97 -1 15.94 -1 19 C-3.57232706 16.42767294 -3.29786466 15.32102308 -3.3125 11.75 C-3.24557998 7.1203513 -2.56829356 3.95945258 0 0 Z " fill="#F2A925" transform="translate(336,446)"/>
<path d="M0 0 C0.66 0.66 1.32 1.32 2 2 C2.33 1.34 2.66 0.68 3 0 C3.66 0.33 4.32 0.66 5 1 C4.773125 1.598125 4.54625 2.19625 4.3125 2.8125 C4.209375 3.534375 4.10625 4.25625 4 5 C5.39588754 6.64594139 5.39588754 6.64594139 7 8 C7 8.66 7 9.32 7 10 C9.31 10 11.62 10 14 10 C14 10.33 14 10.66 14 11 C6.73846154 11.49230769 6.73846154 11.49230769 3 9 C2.34 8.34 1.68 7.68 1 7 C0.67 7.66 0.34 8.32 0 9 C-2.29851498 11.29851498 -2.87453127 11.3398291 -6 11.4375 C-8.77477095 11.30998295 -9.73339361 11.1999548 -12 9.5 C-12.33 9.005 -12.66 8.51 -13 8 C-11.68 8 -10.36 8 -9 8 C-9 8.66 -9 9.32 -9 10 C-7.68 10 -6.36 10 -5 10 C-5.33 7.69 -5.66 5.38 -6 3 C-4.35 3.33 -2.7 3.66 -1 4 C-0.67 2.68 -0.34 1.36 0 0 Z " fill="#DCAF2D" transform="translate(392,461)"/>
<path d="M0 0 C1.32 0 2.64 0 4 0 C4 0.66 4 1.32 4 2 C5.65 2 7.3 2 9 2 C8.67 2.99 8.34 3.98 8 5 C11.2516169 6.67649313 14.56786908 8.13901153 17.9375 9.5625 C18.95714844 9.99691406 19.97679688 10.43132812 21.02734375 10.87890625 C23.70285775 11.88793715 26.18542833 12.53867978 29 13 C29 13.66 29 14.32 29 15 C18.95306423 13.09454666 8.15155483 10.4074437 0 4 C0 2.66666667 0 1.33333333 0 0 Z " fill="#1E84F9" transform="translate(84,384)"/>
<path d="M0 0 C1.32 0.66 2.64 1.32 4 2 C4 2.99 4 3.98 4 5 C6.64 5 9.28 5 12 5 C12 5.66 12 6.32 12 7 C12.85464844 7.19335938 13.70929688 7.38671875 14.58984375 7.5859375 C15.69457031 7.84632813 16.79929687 8.10671875 17.9375 8.375 C19.59072266 8.75785156 19.59072266 8.75785156 21.27734375 9.1484375 C22.17582031 9.42945313 23.07429688 9.71046875 24 10 C24.33 10.66 24.66 11.32 25 12 C27.01669827 13.13350534 27.01669827 13.13350534 29 14 C27 15 27 15 24.93359375 14.328125 C24.10988281 13.97234375 23.28617188 13.6165625 22.4375 13.25 C18.24666316 11.48960488 14.04957515 9.97693137 9.71484375 8.61328125 C8 8 8 8 7 7 C4.66702567 6.95907063 2.33294775 6.95758277 0 7 C-0.66 5.68 -1.32 4.36 -2 3 C-1.34 3 -0.68 3 0 3 C0 2.01 0 1.02 0 0 Z " fill="#4685C2" transform="translate(60,376)"/>
<path d="M0 0 C1.010625 0.0825 2.02125 0.165 3.0625 0.25 C5.0625 3.25 5.0625 3.25 4.6875 5.9375 C4.48125 6.700625 4.275 7.46375 4.0625 8.25 C1.3125 8.9375 1.3125 8.9375 -1.9375 9.25 C-4.3125 7.8125 -4.3125 7.8125 -5.9375 6.25 C-3.65323604 0.31091371 -3.65323604 0.31091371 0 0 Z " fill="#F0AC25" transform="translate(438.9375,462.75)"/>
<path d="M0 0 C2.5625 0.375 2.5625 0.375 4.4375 2.125 C5.5625 4.375 5.5625 4.375 5.25 6.625 C4.9096875 7.49125 4.9096875 7.49125 4.5625 8.375 C1.1875 9 1.1875 9 -2.4375 9.375 C-4.4375 7.375 -4.4375 7.375 -4.6875 4.875 C-4.34210225 1.42102249 -3.42088054 0.52628931 0 0 Z " fill="#CBC03A" transform="translate(367.4375,431.625)"/>
<path d="M0 0 C2.05078125 0.03255208 4.1015625 0.06510417 6.15234375 0.09765625 C6.15234375 0.75765625 6.15234375 1.41765625 6.15234375 2.09765625 C3.84234375 2.09765625 1.53234375 2.09765625 -0.84765625 2.09765625 C-0.84765625 10.67765625 -0.84765625 19.25765625 -0.84765625 28.09765625 C-1.50765625 28.09765625 -2.16765625 28.09765625 -2.84765625 28.09765625 C-2.87651963 23.61850297 -2.89440812 19.13937334 -2.91015625 14.66015625 C-2.91853516 13.38076172 -2.92691406 12.10136719 -2.93554688 10.78320312 C-2.93876953 9.56826172 -2.94199219 8.35332031 -2.9453125 7.1015625 C-2.95054932 5.97564697 -2.95578613 4.84973145 -2.96118164 3.68969727 C-2.8060772 0.14831275 -2.8060772 0.14831275 0 0 Z " fill="#C9BC3F" transform="translate(365.84765625,442.90234375)"/>
<path d="M0 0 C2.5 0.25 2.5 0.25 4.5 2.25 C4.75 4.75 4.75 4.75 4.5 7.25 C2.5 9.25 2.5 9.25 0 9.5 C-2.5 9.25 -2.5 9.25 -4.5 7.25 C-4.75 4.75 -4.75 4.75 -4.5 2.25 C-2.5 0.25 -2.5 0.25 0 0 Z " fill="#E2AC2A" transform="translate(325.5,431.75)"/>
<path d="M0 0 C2.64 0 5.28 0 8 0 C8.33 1.98 8.66 3.96 9 6 C9.639375 6.12375 10.27875 6.2475 10.9375 6.375 C11.618125 6.58125 12.29875 6.7875 13 7 C13.33 7.66 13.66 8.32 14 9 C14.66 9.33 15.32 9.66 16 10 C14.25 12 14.25 12 12 14 C10.68 14 9.36 14 8 14 C8 17.96 8 21.92 8 26 C7.67 26 7.34 26 7 26 C6.67 21.38 6.34 16.76 6 12 C7.65 12.33 9.3 12.66 11 13 C11 11.68 11 10.36 11 9 C9.68 8.67 8.36 8.34 7 8 C7 5.69 7 3.38 7 1 C4.69 1 2.38 1 0 1 C0 0.67 0 0.34 0 0 Z " fill="#E1C12B" transform="translate(378,436)"/>
<path d="M0 0 C0.99 0 1.98 0 3 0 C3.33 2.64 3.66 5.28 4 8 C4.928125 8.2165625 4.928125 8.2165625 5.875 8.4375 C8 9 8 9 10 10 C9.67 10.99 9.34 11.98 9 13 C7.35 13 5.7 13 4 13 C3.896875 12.360625 3.79375 11.72125 3.6875 11.0625 C3.460625 10.381875 3.23375 9.70125 3 9 C2.01 8.67 1.02 8.34 0 8 C0.33 6.68 0.66 5.36 1 4 C0.67 4.33 0.34 4.66 0 5 C-0.66 5.66 -1.32 6.32 -2 7 C-2.125 4.625 -2.125 4.625 -2 2 C-1.34 1.34 -0.68 0.68 0 0 Z " fill="#FBA31B" transform="translate(395,458)"/>
<path d="M0 0 C-3.18575532 2.12383688 -5.7053024 2.89308762 -9.3828125 3.91015625 C-10.63191406 4.26013672 -11.88101563 4.61011719 -13.16796875 4.97070312 C-14.48686172 5.33506082 -15.80587369 5.698988 -17.125 6.0625 C-19.71209405 6.7785425 -22.29767992 7.4995142 -24.8828125 8.22265625 C-26.03152832 8.53984619 -27.18024414 8.85703613 -28.36376953 9.18383789 C-30.89992719 9.74447646 -30.89992719 9.74447646 -32 11 C-33.84891946 11.23363881 -35.70488031 11.41303635 -37.5625 11.5625 C-39.08037109 11.68818359 -39.08037109 11.68818359 -40.62890625 11.81640625 C-41.41136719 11.87699219 -42.19382812 11.93757813 -43 12 C-39.87038945 9.91359296 -37.43359282 9.13574221 -33.828125 8.125 C-31.99507812 7.60679688 -31.99507812 7.60679688 -30.125 7.078125 C-28.83337146 6.71861301 -27.54170447 6.35923909 -26.25 6 C-24.98671875 5.64421875 -23.7234375 5.2884375 -22.421875 4.921875 C-20.05438934 4.25539794 -17.68628961 3.59109557 -15.31738281 2.9296875 C-12.96097414 2.26931039 -10.61056772 1.58734769 -8.26464844 0.890625 C-5.31093307 0.08482529 -3.0333116 -0.18383707 0 0 Z " fill="#0581C8" transform="translate(162,106)"/>
<path d="M0 0 C1.65 0 3.3 0 5 0 C5.19491452 1.45736087 5.38069358 2.91594593 5.5625 4.375 C5.66691406 5.18710937 5.77132813 5.99921875 5.87890625 6.8359375 C6 9 6 9 5 11 C3.35 10.67 1.7 10.34 0 10 C0 6.7 0 3.4 0 0 Z " fill="#FBA31A" transform="translate(335,456)"/>
<path d="M0 0 C1.22963633 3.68890899 1.55670401 7.13699206 2 11 C-0.64 11.33 -3.28 11.66 -6 12 C-5.67 10.02 -5.34 8.04 -5 6 C-6.65 6 -8.3 6 -10 6 C-10 5.67 -10 5.34 -10 5 C-8.906875 4.9175 -7.81375 4.835 -6.6875 4.75 C-2.96723336 4.36310791 -2.96723336 4.36310791 -1.0625 1.9375 C-0.711875 1.298125 -0.36125 0.65875 0 0 Z " fill="#E9AB26" transform="translate(307,459)"/>
<path d="M0 0 C2.38564077 0.57584432 4.66682784 1.22227595 7 2 C7 2.66 7 3.32 7 4 C6.01 4 5.02 4 4 4 C4.33 4.99 4.66 5.98 5 7 C7.97 7.33 10.94 7.66 14 8 C14 8.33 14 8.66 14 9 C2.29384966 9.55353075 2.29384966 9.55353075 -2 6 C-1.49396008 3.83125748 -1.00016187 2.00032373 0 0 Z " fill="#D6B232" transform="translate(337,473)"/>
<path d="M0 0 C0.33 0 0.66 0 1 0 C1 8.91 1 17.82 1 27 C4.465 26.505 4.465 26.505 8 26 C8.33 24.68 8.66 23.36 9 22 C11.50357861 22.8345262 13.66785852 23.79371992 16 25 C14.27318563 25.50806447 12.54342021 26.00610467 10.8125 26.5 C9.84957031 26.7784375 8.88664062 27.056875 7.89453125 27.34375 C5 28 5 28 0 28 C0 18.76 0 9.52 0 0 Z " fill="#F2A432" transform="translate(368,221)"/>
<path d="M0 0 C-3.69009457 1.46538743 -7.38863185 2.90675235 -11.09619141 4.32739258 C-12.96865032 5.05039512 -14.83402623 5.79165615 -16.69921875 6.53320312 C-23.29954564 9.04846283 -28.0592963 10.79590708 -35 9 C-32.9353439 8.46471879 -30.92604543 7.98943506 -28.8125 7.6875 C-26.2860719 7.06992869 -24.34006057 6.28266546 -22 5.1875 C-6.45737863 -1.91769834 -6.45737863 -1.91769834 0 0 Z " fill="#0D8DC8" transform="translate(255,428)"/>
<path d="M0 0 C0 0.33 0 0.66 0 1 C-2.64 1 -5.28 1 -8 1 C-8.2475 1.639375 -8.495 2.27875 -8.75 2.9375 C-10 5 -10 5 -11.6875 5.625 C-14.57164667 6.09269946 -17.32917268 6.09424812 -20.25 6.0625 C-21.32765625 6.05347656 -22.4053125 6.04445313 -23.515625 6.03515625 C-24.33546875 6.02355469 -25.1553125 6.01195313 -26 6 C-22.20794885 3.4719659 -18.48229232 2.5282469 -14.125 1.3125 C-13.32191406 1.07466797 -12.51882812 0.83683594 -11.69140625 0.59179688 C-7.47254647 -0.59323705 -4.30448777 -1.43773377 0 0 Z " fill="#1085D4" transform="translate(230,88)"/>
<path d="M0 0 C0 0.66 0 1.32 0 2 C-8.57598357 5.68038161 -16.650889 8.87266437 -26 10 C-24.57315804 7.14631608 -22.9881528 7.0393575 -20 6 C-16.90864064 5.07801563 -13.84100907 4.1818398 -10.6875 3.5 C-8.75543811 3.07349935 -8.75543811 3.07349935 -7 1 C-4.60938484 0.40234621 -2.46474039 0 0 0 Z " fill="#158BE2" transform="translate(272,419)"/>
<path d="M0 0 C2.0625 0.4375 2.0625 0.4375 4 1 C3.01 1.495 3.01 1.495 2 2 C0.77681134 5.66956597 0.76883876 9.12321003 0.68359375 12.94921875 C0.66281265 13.72183548 0.64203156 14.49445221 0.62062073 15.29048157 C0.55528962 17.7560648 0.49631685 20.22175361 0.4375 22.6875 C0.39429913 24.36003691 0.35068434 26.03256319 0.30664062 27.70507812 C0.1996251 31.8032775 0.09831143 35.90158296 0 40 C-0.33 40 -0.66 40 -1 40 C-1.02464775 34.46411467 -1.04283496 28.928261 -1.05493164 23.39233398 C-1.05997244 21.5075627 -1.06680498 19.62279535 -1.07543945 17.73803711 C-1.08751617 15.03498364 -1.09323068 12.33198169 -1.09765625 9.62890625 C-1.10281754 8.78099014 -1.10797882 7.93307404 -1.11329651 7.0594635 C-1.11349195 5.03928932 -1.06206211 3.01922066 -1 1 C-0.67 0.67 -0.34 0.34 0 0 Z " fill="#B3BF48" transform="translate(422,431)"/>
<path d="M0 0 C6.95331168 0.63578902 13.33154837 2.88805657 19.9375 5.0625 C21.67870117 5.62807617 21.67870117 5.62807617 23.45507812 6.20507812 C26.30509014 7.13162524 29.15327951 8.06339873 32 9 C28.10807528 10.14921928 25.68270999 9.63117119 21.75 8.5625 C20.67234375 8.27503906 19.5946875 7.98757812 18.484375 7.69140625 C17.25460937 7.34916016 17.25460937 7.34916016 16 7 C16 6.34 16 5.68 16 5 C14.824375 5.12375 14.824375 5.12375 13.625 5.25 C8.62373094 4.90508489 4.5484412 3.01353919 0 1 C0 0.67 0 0.34 0 0 Z " fill="#098ACC" transform="translate(239,92)"/>
<path d="M0 0 C0.33 0 0.66 0 1 0 C1.33 9.24 1.66 18.48 2 28 C-3.94 27.01 -3.94 27.01 -10 26 C-6 25 -6 25 0 25 C0 16.75 0 8.5 0 0 Z " fill="#0C6CF7" transform="translate(225,409)"/>
<path d="M0 0 C0.99 0 1.98 0 3 0 C3 0.66 3 1.32 3 2 C3.99 2 4.98 2 6 2 C4.52307692 6.67692308 4.52307692 6.67692308 1.875 8.3125 C0.946875 8.6528125 0.946875 8.6528125 0 9 C-0.66 6.69 -1.32 4.38 -2 2 C-1.34 2 -0.68 2 0 2 C0 1.34 0 0.68 0 0 Z " fill="#EDA726" transform="translate(309,460)"/>
<path d="M0 0 C3.63 0.33 7.26 0.66 11 1 C11 1.66 11 2.32 11 3 C11.515625 3.103125 12.03125 3.20625 12.5625 3.3125 C15.86026435 4.24263866 18.86633332 5.61395512 22 7 C20 8 20 8 17.93701172 7.47094727 C17.10959473 7.17244873 16.28217773 6.8739502 15.4296875 6.56640625 C14.53378906 6.24736328 13.63789063 5.92832031 12.71484375 5.59960938 C11.77769531 5.25736328 10.84054688 4.91511719 9.875 4.5625 C8.93011719 4.22412109 7.98523438 3.88574219 7.01171875 3.53710938 C4.67197234 2.6981094 2.33497991 1.85215708 0 1 C0 0.67 0 0.34 0 0 Z " fill="#087FCD" transform="translate(192,426)"/>
<path d="M0 0 C1.98 0 3.96 0 6 0 C6 0.66 6 1.32 6 2 C7.98 2 9.96 2 12 2 C11.01 2.495 11.01 2.495 10 3 C9.67 3.99 9.34 4.98 9 6 C6.69 6 4.38 6 2 6 C2.33 4.68 2.66 3.36 3 2 C2.01 2 1.02 2 0 2 C0 1.34 0 0.68 0 0 Z " fill="#E1BF93" transform="translate(84,443)"/>
<path d="M0 0 C0.66 0 1.32 0 2 0 C2 0.66 2 1.32 2 2 C3.32 2.33 4.64 2.66 6 3 C6 3.99 6 4.98 6 6 C1.80530429 5.40075776 -2.00999834 4.42500059 -6 3 C-6 2.34 -6 1.68 -6 1 C-4.7934375 1.0309375 -4.7934375 1.0309375 -3.5625 1.0625 C-1.06645115 1.29633621 -1.06645115 1.29633621 0 0 Z " fill="#168CE1" transform="translate(52,374)"/>
<path d="M0 0 C4.70139256 -0.27325531 7.79347297 0.49302704 12.0625 2.4375 C15.72654954 4.0926884 19.02167874 5.36492853 23 6 C23 6.66 23 7.32 23 8 C15.01323028 6.48526781 7.59877122 3.83197448 0 1 C0 0.67 0 0.34 0 0 Z " fill="#0E91D1" transform="translate(90,391)"/>
<path d="M0 0 C3.3 0 6.6 0 10 0 C10 0.33 10 0.66 10 1 C8.02 1.66 6.04 2.32 4 3 C3.07155611 7.33273814 3.07155611 10.66726186 4 15 C3.34 14.67 2.68 14.34 2 14 C1.53193355 11.66255706 1.17330206 9.30260921 0.875 6.9375 C0.70742188 5.64714844 0.53984375 4.35679687 0.3671875 3.02734375 C0.24601562 2.02832031 0.12484375 1.02929688 0 0 Z " fill="#E0BD2E" transform="translate(339,449)"/>
<path d="M0 0 C4.85342635 -0.33861114 6.92987891 0.50242569 11 3 C14.29834093 4.12824605 17.63832752 5.07961977 21 6 C20.67 6.66 20.34 7.32 20 8 C17.525 7.505 17.525 7.505 15 7 C15 6.34 15 5.68 15 5 C13.02 5 11.04 5 9 5 C9 4.34 9 3.68 9 3 C7.35 3 5.7 3 4 3 C4 2.34 4 1.68 4 1 C2.68 0.67 1.36 0.34 0 0 Z " fill="#D9A555" transform="translate(61,382)"/>
<path d="M0 0 C0.66 0.33 1.32 0.66 2 1 C1.67 4.96 1.34 8.92 1 13 C0.01 13 -0.98 13 -2 13 C-2.93423645 9.98968256 -3.04449911 9.13349732 -2 6 C-1.34 6 -0.68 6 0 6 C0 4.02 0 2.04 0 0 Z " fill="#FDA218" transform="translate(314,449)"/>
<path d="M0 0 C5.39392739 0.61665136 10.28395283 1.87922796 15.4375 3.5625 C16.16904297 3.79646484 16.90058594 4.03042969 17.65429688 4.27148438 C19.43780179 4.84267222 21.21913583 5.42063123 23 6 C23 6.33 23 6.66 23 7 C14.98449131 6.01850914 7.60891113 3.58806501 0 1 C0 0.67 0 0.34 0 0 Z " fill="#0A83CD" transform="translate(271,102)"/>
<path d="M0 0 C3.11359501 3.11359501 2.96606129 6.71693449 3 11 C2.54521329 13.78843975 1.83766903 16.2898943 1 19 C0.67 19 0.34 19 0 19 C0 12.73 0 6.46 0 0 Z " fill="#E0BD2A" transform="translate(315,443)"/>
<path d="M0 0 C-2.46153846 4.8 -2.46153846 4.8 -5.1875 5.8125 C-5.785625 5.874375 -6.38375 5.93625 -7 6 C-7.33 5.01 -7.66 4.02 -8 3 C-5.53387212 -0.1151089 -3.89156016 -0.31553191 0 0 Z " fill="#F8A61F" transform="translate(401,445)"/>
<path d="M0 0 C0.33 1.98 0.66 3.96 1 6 C-0.98 6 -2.96 6 -5 6 C-5 4.68 -5 3.36 -5 2 C-2 0 -2 0 0 0 Z " fill="#F9A419" transform="translate(370,433)"/>
<path d="M0 0 C1 3 1 3 1 7 C-0.98 7.66 -2.96 8.32 -5 9 C-5 8.01 -5 7.02 -5 6 C-6.65 6 -8.3 6 -10 6 C-10 5.67 -10 5.34 -10 5 C-8.906875 4.9175 -7.81375 4.835 -6.6875 4.75 C-2.96723336 4.36310791 -2.96723336 4.36310791 -1.0625 1.9375 C-0.711875 1.298125 -0.36125 0.65875 0 0 Z " fill="#E1B131" transform="translate(307,459)"/>
<path d="M0 0 C1.98 0 3.96 0 6 0 C6.33 1.65 6.66 3.3 7 5 C5.35 5 3.7 5 2 5 C2 4.34 2 3.68 2 3 C1.01 3.33 0.02 3.66 -1 4 C-0.67 2.68 -0.34 1.36 0 0 Z " fill="#FBA915" transform="translate(401,455)"/>
<path d="M0 0 C6.73862227 1.43609983 13.36629557 3.14008287 20 5 C20 5.33 20 5.66 20 6 C12.82117677 6.55221717 6.51269582 3.7311305 0 1 C0 0.67 0 0.34 0 0 Z " fill="#077FC8" transform="translate(294,109)"/>
<path d="M0 0 C1.98 0 3.96 0 6 0 C6 1.65 6 3.3 6 5 C8.31 5 10.62 5 13 5 C13 5.33 13 5.66 13 6 C5.75560803 6.61393152 5.75560803 6.61393152 2 3.5625 C0 1 0 1 0 0 Z " fill="#D9B533" transform="translate(335,466)"/>
<path d="M0 0 C2.375 -0.125 2.375 -0.125 5 0 C7 2 7 2 7.125 4.625 C7.08375 5.40875 7.0425 6.1925 7 7 C6.67 5.68 6.34 4.36 6 3 C3.36 3.33 0.72 3.66 -2 4 C-1.34 2.68 -0.68 1.36 0 0 Z " fill="#D3B535" transform="translate(323,432)"/>
<path d="M0 0 C2.50357861 0.8345262 4.66785852 1.79371992 7 3 C5.23225581 3.53122363 3.46065917 4.04964073 1.6875 4.5625 C0.70136719 4.85253906 -0.28476562 5.14257812 -1.30078125 5.44140625 C-4 6 -4 6 -7 5 C-5.02 4.67 -3.04 4.34 -1 4 C-0.67 2.68 -0.34 1.36 0 0 Z " fill="#D7B630" transform="translate(377,243)"/>
<path d="M0 0 C0 2.31 0 4.62 0 7 C-1.98 7 -3.96 7 -6 7 C-3.60526316 0 -3.60526316 0 0 0 Z " fill="#ECAC23" transform="translate(371,465)"/>
<path d="M0 0 C2.64 0.66 5.28 1.32 8 2 C8 2.66 8 3.32 8 4 C7.34 4 6.68 4 6 4 C6 4.66 6 5.32 6 6 C5.34 5.67 4.68 5.34 4 5 C4 4.34 4 3.68 4 3 C3.34 3.66 2.68 4.32 2 5 C1.01 4.01 0.02 3.02 -1 2 C-0.67 1.34 -0.34 0.68 0 0 Z " fill="#FAA318" transform="translate(303,436)"/>
<path d="M0 0 C-3.14591933 2.80045623 -5.067064 3.35261589 -9.25 3.1875 C-10.14203125 3.16042969 -11.0340625 3.13335937 -11.953125 3.10546875 C-12.96632813 3.05326172 -12.96632813 3.05326172 -14 3 C-9.7368213 0.15788087 -5.03577274 -2.0143091 0 0 Z " fill="#087BD0" transform="translate(119,119)"/>
<path d="M0 0 C0.33 0 0.66 0 1 0 C1 1.65 1 3.3 1 5 C0.34 5 -0.32 5 -1 5 C-1.33 8.63 -1.66 12.26 -2 16 C-2.33 16 -2.66 16 -3 16 C-3.32712342 9.86946489 -3.39366878 5.37330889 0 0 Z " fill="#C5BA42" transform="translate(336,446)"/>
<path d="M0 0 C-3.09902323 3.09902323 -5.39147385 2.9898579 -9.75 3.0625 C-10.8225 3.041875 -11.895 3.02125 -13 3 C-4.03773585 -2.01886792 -4.03773585 -2.01886792 0 0 Z " fill="#0479D3" transform="translate(51,138)"/>
<path d="M0 0 C2.375 -0.1875 2.375 -0.1875 5 0 C7 3 7 3 6.625 5.6875 C6.41875 6.450625 6.2125 7.21375 6 8 C5.67 8 5.34 8 5 8 C4.67 6.35 4.34 4.7 4 3 C2.68 2.67 1.36 2.34 0 2 C0 1.34 0 0.68 0 0 Z " fill="#CCBB3B" transform="translate(437,463)"/>
<path d="M0 0 C3.96 0.33 7.92 0.66 12 1 C12 1.66 12 2.32 12 3 C8.69564916 4.12377697 6.9493138 3.89554742 3.75 2.5625 C3.04359375 2.27503906 2.3371875 1.98757813 1.609375 1.69140625 C1.07828125 1.46324219 0.5471875 1.23507812 0 1 C0 0.67 0 0.34 0 0 Z " fill="#1F85F6" transform="translate(100,393)"/>
<path d="M0 0 C2.9375 0.375 2.9375 0.375 6 1 C6.33 1.66 6.66 2.32 7 3 C9.01669827 4.13350534 9.01669827 4.13350534 11 5 C10.01 5.495 10.01 5.495 9 6 C7.08984375 5.29296875 7.08984375 5.29296875 4.9375 4.1875 C4.22464844 3.83042969 3.51179688 3.47335937 2.77734375 3.10546875 C1 2 1 2 0 0 Z " fill="#2E83D0" transform="translate(78,385)"/>
<path d="M0 0 C2.31 0 4.62 0 7 0 C7.33 0.99 7.66 1.98 8 3 C5.03 3 2.06 3 -1 3 C-0.67 2.01 -0.34 1.02 0 0 Z " fill="#CEB735" transform="translate(297,439)"/>
<path d="M0 0 C-0.99 1.485 -0.99 1.485 -2 3 C-2.66 3 -3.32 3 -4 3 C-4 2.34 -4 1.68 -4 1 C-4.61875 1.20625 -5.2375 1.4125 -5.875 1.625 C-6.57625 1.74875 -7.2775 1.8725 -8 2 C-8.66 1.34 -9.32 0.68 -10 0 C-3.375 -1.125 -3.375 -1.125 0 0 Z " fill="#0B69F7" transform="translate(48,141)"/>
<path d="M0 0 C0 0.66 0 1.32 0 2 C-3.63 2 -7.26 2 -11 2 C-4.31914894 -1.34042553 -4.31914894 -1.34042553 0 0 Z " fill="#0D75C8" transform="translate(62,135)"/>
<path d="M0 0 C1.62418745 -0.08090971 3.24951745 -0.13914995 4.875 -0.1875 C5.77992188 -0.22230469 6.68484375 -0.25710938 7.6171875 -0.29296875 C8.79667969 -0.14794922 8.79667969 -0.14794922 10 0 C10.66 0.99 11.32 1.98 12 3 C6.06 2.01 6.06 2.01 0 1 C0 0.67 0 0.34 0 0 Z " fill="#0E76DC" transform="translate(215,434)"/>
<path d="" fill="#00FF00" transform="translate(0,0)"/>
<path d="" fill="#00FF00" transform="translate(0,0)"/>
<path d="" fill="#00FF00" transform="translate(0,0)"/>
<path d="" fill="#00FF00" transform="translate(0,0)"/>
<path d="" fill="#00FF00" transform="translate(0,0)"/>
<path d="" fill="#00FF00" transform="translate(0,0)"/>
<path d="" fill="#00FF00" transform="translate(0,0)"/>
<path d="" fill="#00FF00" transform="translate(0,0)"/>
<path d="" fill="#00FF00" transform="translate(0,0)"/>
<path d="" fill="#00FF00" transform="translate(0,0)"/>
<path d="" fill="#00FF00" transform="translate(0,0)"/>
<path d="" fill="#00FF00" transform="translate(0,0)"/>
<path d="" fill="#00FF00" transform="translate(0,0)"/>
<path d="" fill="#00FF00" transform="translate(0,0)"/>
<path d="" fill="#00FF00" transform="translate(0,0)"/>
<path d="" fill="#00FF00" transform="translate(0,0)"/>
<path d="" fill="#00FF00" transform="translate(0,0)"/>
<path d="" fill="#00FF00" transform="translate(0,0)"/>
<path d="" fill="#00FF00" transform="translate(0,0)"/>
<path d="" fill="#00FF00" transform="translate(0,0)"/>
<path d="" fill="#00FF00" transform="translate(0,0)"/>
<path d="" fill="#00FF00" transform="translate(0,0)"/>
<path d="" fill="#00FF00" transform="translate(0,0)"/>
<path d="" fill="#00FF00" transform="translate(0,0)"/>
<path d="" fill="#00FF00" transform="translate(0,0)"/>
<path d="" fill="#00FF00" transform="translate(0,0)"/>
<path d="" fill="#00FF00" transform="translate(0,0)"/>
<path d="" fill="#00FF00" transform="translate(0,0)"/>
<path d="" fill="#00FF00" transform="translate(0,0)"/>
<path d="" fill="#00FF00" transform="translate(0,0)"/>
<path d="" fill="#00FF00" transform="translate(0,0)"/>
<path d="" fill="#00FF00" transform="translate(0,0)"/>
<path d="" fill="#00FF00" transform="translate(0,0)"/>
<path d="" fill="#00FF00" transform="translate(0,0)"/>
<path d="" fill="#00FF00" transform="translate(0,0)"/>
<path d="" fill="#00FF00" transform="translate(0,0)"/>
<path d="" fill="#00FF00" transform="translate(0,0)"/>
<path d="" fill="#00FF00" transform="translate(0,0)"/>
<path d="" fill="#00FF00" transform="translate(0,0)"/>
<path d="" fill="#00FF00" transform="translate(0,0)"/>
<path d="" fill="#00FF00" transform="translate(0,0)"/>
<path d="" fill="#00FF00" transform="translate(0,0)"/>
<path d="" fill="#00FF00" transform="translate(0,0)"/>
<path d="" fill="#00FF00" transform="translate(0,0)"/>
<path d="" fill="#00FF00" transform="translate(0,0)"/>
<path d="" fill="#00FF00" transform="translate(0,0)"/>
<path d="" fill="#00FF00" transform="translate(0,0)"/>
</svg>
